<svg xmlns="http://www.w3.org/2000/svg" viewBox="0 0 830 698" fill="currentColor"><path fill-rule="evenodd" d="M42.5 693.9C41.9 693.6 41.4 693.1 41.3 692.8C41.2 692.4 41.2 684.9 41.3 676.1C41.4 664.4 41.5 659.9 41.8 659.5C42.2 659.0 44.0 658.9 59.4 658.9L76.5 658.8L77.6 657.9C78.2 657.4 79.0 656.9 79.4 656.8C80.5 656.5 84.0 652.7 85.2 650.7C86.9 647.7 89.6 643.7 90.7 642.4C91.3 641.8 92.1 640.5 92.5 639.6C92.9 638.7 93.7 637.5 94.2 636.9L95.2 636.0L95.2 605.2L95.2 574.4L94.1 573.2C93.5 572.5 93.0 571.7 93.0 571.4C93.0 570.4 90.7 566.1 89.9 565.6C89.5 565.3 88.7 564.3 88.2 563.3C87.0 560.8 86.0 559.5 84.6 558.0C83.9 557.3 83.3 556.5 83.3 556.3C83.3 555.9 81.8 553.2 80.6 551.5C80.1 550.9 79.5 550.9 62.1 551.0C43.8 551.0 42.0 550.9 41.5 549.8C41.3 549.1 41.2 517.6 41.5 516.9C41.6 516.6 42.2 516.2 42.8 516.1C43.4 515.9 54.5 515.9 67.6 516.0L91.4 516.2L92.3 517.2C92.8 517.8 93.6 518.5 94.1 518.8C94.6 519.2 95.3 520.0 95.7 520.6C96.6 522.2 97.8 524.0 98.8 525.0C99.6 525.9 101.6 528.8 103.0 531.3C103.5 532.1 104.2 532.9 104.5 533.1C104.8 533.2 105.5 534.2 106.0 535.2C106.6 536.2 107.4 537.3 107.8 537.6C108.2 537.9 108.9 538.8 109.3 539.5C109.6 540.3 110.3 541.0 110.7 541.3C111.2 541.5 111.8 542.2 112.2 542.8C112.5 543.4 113.2 544.3 113.7 544.9C114.2 545.5 114.7 546.2 114.7 546.5C114.7 546.8 115.2 547.6 115.8 548.2C116.4 548.9 117.4 550.7 118.1 552.1C118.7 553.5 119.7 555.2 120.3 555.9C120.8 556.6 121.4 557.8 121.5 558.5C121.7 559.2 122.1 560.5 122.6 561.4L123.3 562.9L123.3 605.0L123.2 647.2L122.2 648.5C121.7 649.2 121.3 650.1 121.3 650.5C121.3 650.9 120.8 652.0 120.2 652.9C119.5 653.8 119.0 654.7 119.0 655.0C119.0 655.2 118.6 655.9 118.1 656.4C117.7 657.0 116.9 658.2 116.4 659.1C116.0 660.1 115.3 661.2 114.9 661.7C113.5 663.6 111.3 667.1 110.8 668.2C110.5 668.9 109.5 670.3 108.5 671.3C107.5 672.3 106.3 673.8 105.9 674.5C103.9 677.5 102.8 678.9 102.0 679.7C101.5 680.1 100.8 681.2 100.5 682.1C100.2 683.1 99.4 684.3 98.8 684.9C98.2 685.5 97.7 686.2 97.7 686.3C97.7 686.7 95.5 689.4 94.2 690.7C93.7 691.1 92.8 692.1 92.0 692.8L90.7 694.0L70.1 694.0C58.7 694.0 48.1 694.1 46.5 694.2C44.3 694.3 43.2 694.2 42.5 693.9ZM720.9 693.9C720.4 693.7 719.9 693.2 719.7 692.6C719.5 691.9 719.3 686.3 719.3 676.1L719.3 660.6L720.2 659.8L721.0 659.0L743.1 659.0C763.8 659.0 765.3 659.0 765.8 659.6C766.2 660.1 766.3 662.2 766.4 676.4C766.5 692.1 766.4 692.7 765.8 693.3C765.2 693.9 764.3 694.0 743.4 694.1C731.5 694.1 721.3 694.0 720.9 693.9ZM4.8 693.2L4.0 692.3L4.0 618.2C4.1 577.5 4.2 538.1 4.3 530.7C4.4 518.1 4.4 517.2 5.0 516.6C5.6 516.0 6.4 516.0 19.0 516.0L32.3 516.0L32.8 516.7C33.3 517.4 33.3 526.3 33.3 605.0C33.3 683.7 33.3 692.6 32.8 693.3L32.3 694.0L19.0 694.0L5.6 694.0L4.8 693.2ZM145.0 693.3C144.3 692.7 144.3 692.2 144.3 663.5C144.3 634.8 144.3 634.3 145.0 633.7C145.6 633.0 146.1 633.0 158.2 633.0C165.2 633.0 171.0 633.1 171.2 633.3C172.2 633.9 172.3 635.1 172.3 646.3C172.3 657.2 172.4 657.7 173.0 658.3C173.7 659.0 174.1 659.0 208.6 659.0C242.6 659.0 243.6 659.0 244.4 659.6L245.2 660.3L245.2 676.5L245.2 692.7L244.4 693.4C243.6 694.0 242.3 694.0 194.6 694.0C146.1 694.0 145.7 694.0 145.0 693.3ZM266.2 693.2L265.3 692.4L265.3 676.5L265.3 660.6L266.2 659.8L267.0 659.0L289.0 659.1C309.6 659.2 311.0 659.2 311.6 659.8C312.1 660.3 312.2 661.5 312.2 676.5L312.2 692.7L311.4 693.4C310.6 694.0 309.8 694.0 288.8 694.0L267.0 694.0L266.2 693.2ZM321.0 693.4L320.2 692.7L320.2 676.5C320.2 661.5 320.2 660.3 320.8 659.8C321.3 659.2 322.8 659.2 345.5 659.1L369.7 659.0L370.5 659.8C371.4 660.7 371.4 660.8 371.3 664.2L371.2 667.6L369.8 669.1C369.1 669.9 368.2 671.1 367.7 671.7C367.3 672.3 366.6 673.4 366.2 674.0C365.7 674.6 365.1 675.6 364.8 676.1C364.4 676.7 363.5 677.8 362.8 678.7C362.0 679.5 361.3 680.4 361.3 680.6C361.3 680.8 361.0 681.4 360.5 681.9C360.1 682.4 359.4 683.7 358.9 684.7C358.5 685.7 357.8 686.7 357.5 687.0C357.2 687.2 356.6 688.1 356.2 689.0C355.7 689.8 355.0 690.8 354.4 691.1C353.9 691.4 353.3 692.0 353.0 692.4C352.8 692.9 352.2 693.4 351.8 693.6C351.2 693.9 346.4 694.0 336.4 694.0C322.5 694.0 321.7 694.0 321.0 693.4ZM393.7 693.8C392.3 693.3 392.3 695.3 392.3 627.9C392.3 563.8 392.3 563.3 393.0 562.7C393.6 562.0 394.1 562.0 406.6 562.0C418.5 562.0 419.7 562.0 420.3 562.6L421.0 563.2L421.0 628.0L421.1 692.8L420.3 693.4C419.6 694.0 418.7 694.0 406.9 694.0C399.9 694.0 393.9 693.9 393.7 693.8ZM471.1 693.6C470.7 693.4 470.1 692.7 469.7 692.0C469.3 691.2 468.6 690.4 468.2 690.1C467.7 689.9 467.1 688.8 466.7 687.6C466.3 686.5 465.7 685.5 465.5 685.4C465.2 685.3 464.6 684.5 464.1 683.6C463.7 682.7 463.1 681.9 462.9 681.8C462.6 681.7 461.9 680.9 461.2 679.9C460.4 678.9 459.1 677.3 458.1 676.3C457.0 675.1 456.2 673.7 455.8 672.7C455.5 671.7 455.1 670.9 454.8 670.8C454.0 670.5 451.4 666.7 451.0 665.3C450.8 664.6 450.1 663.4 449.5 662.7C448.9 661.9 448.3 661.1 448.3 661.0C448.3 660.6 446.4 657.6 445.2 656.2C444.8 655.6 444.3 654.6 444.2 654.0C444.0 653.4 443.5 652.2 443.0 651.4C442.4 650.5 442.0 649.6 442.0 649.2C442.0 648.8 441.6 647.8 441.2 646.8L440.4 645.2L440.3 603.8C440.3 564.3 440.4 562.4 440.9 561.3C441.3 560.7 441.7 559.7 441.8 559.2C441.9 558.7 442.6 557.2 443.4 555.9C444.2 554.6 445.0 553.1 445.3 552.5C445.5 551.9 446.3 550.8 446.9 549.9C447.5 549.0 448.2 547.9 448.4 547.4C448.8 546.3 450.5 543.9 452.0 542.3C452.7 541.7 453.4 540.7 453.5 540.3C453.6 539.9 454.2 538.9 454.8 538.3C457.0 535.6 460.1 531.4 460.8 530.1C461.1 529.6 461.7 528.7 462.3 528.2C462.9 527.6 463.3 527.0 463.3 526.8C463.3 526.6 463.8 525.9 464.4 525.2C465.0 524.6 466.0 523.3 466.7 522.3C468.3 519.9 471.2 516.6 471.9 516.3C472.2 516.2 476.3 516.0 481.0 516.0C490.4 516.0 490.4 516.0 490.8 518.0C490.9 518.5 490.9 525.8 490.7 534.2C490.5 547.4 490.4 549.7 490.0 550.2C489.7 550.4 488.4 550.8 487.0 551.0C485.0 551.2 484.4 551.4 483.9 552.1C483.4 552.8 482.8 553.5 480.2 556.5C479.6 557.2 478.9 558.6 478.6 559.5C478.3 560.7 477.9 561.3 477.0 561.9C476.4 562.3 475.6 563.2 475.2 563.8C474.9 564.3 474.3 565.2 473.9 565.6C473.3 566.2 471.9 569.3 471.4 570.8C471.3 571.2 470.9 571.9 470.5 572.5C470.1 573.1 469.7 573.8 469.6 574.2C469.5 574.5 469.3 588.4 469.3 604.9L469.2 634.9L470.0 636.0C470.4 636.6 471.4 638.4 472.1 640.0C473.4 642.7 474.5 644.3 476.8 646.8C477.3 647.4 477.9 648.3 478.2 648.9C478.4 649.5 479.3 650.9 480.2 652.0C481.0 653.1 482.0 654.6 482.3 655.4C483.4 657.6 484.9 658.7 487.5 658.9C488.9 659.0 490.0 659.3 490.4 659.7L491.2 660.3L491.2 676.7C491.2 692.5 491.1 693.1 490.5 693.5C490.0 693.9 488.1 694.0 480.9 694.0C475.4 694.0 471.6 693.8 471.1 693.6ZM500.1 693.2L499.3 692.3L499.4 676.3C499.5 661.5 499.5 660.3 500.1 659.8C500.6 659.2 501.7 659.2 511.8 659.0C522.8 658.8 523.0 658.8 523.9 658.1C524.4 657.7 525.4 657.0 526.1 656.5C526.7 656.1 527.4 655.3 527.5 654.9C527.6 654.5 528.3 653.5 529.0 652.8C529.8 652.0 530.3 651.1 530.3 650.8C530.3 650.5 530.7 649.6 531.2 648.7C532.0 647.2 532.0 647.2 532.0 637.8C532.0 628.7 532.0 628.4 531.3 627.8C530.7 627.2 529.8 627.2 520.2 627.0C514.5 626.9 509.8 626.8 509.8 626.7C509.0 625.4 508.9 624.0 509.1 611.4C509.3 598.5 509.4 598.2 510.0 597.6C510.7 597.0 512.4 597.0 534.6 597.0C558.4 597.0 559.3 597.0 560.1 598.1C560.2 598.3 560.3 612.7 560.3 630.1L560.3 661.7L559.5 663.8C558.9 665.1 558.2 666.2 557.3 666.9C556.6 667.6 555.6 668.8 555.1 669.6C554.6 670.5 553.6 671.8 552.9 672.6C552.2 673.4 551.7 674.1 551.7 674.3C551.7 674.5 550.8 675.6 549.7 676.8C548.5 677.9 547.0 679.5 546.2 680.4C545.3 681.2 544.7 682.1 544.7 682.3C544.7 682.6 540.1 686.6 538.0 688.0C536.5 689.1 534.0 691.1 532.3 692.8L531.0 694.0L516.0 694.0L501.0 694.0L500.1 693.2ZM582.2 693.3L581.3 692.6L581.3 621.7C581.3 546.0 581.3 549.1 582.9 549.9C583.2 550.1 583.8 550.9 584.1 551.6C585.7 554.8 585.3 554.1 588.1 559.0C591.2 564.4 593.7 569.3 593.7 570.1C593.7 570.6 594.0 571.4 594.5 572.0C595.0 572.7 595.6 573.8 596.0 574.5C596.4 575.3 596.9 576.1 597.1 576.3C597.4 576.5 597.9 577.4 598.2 578.3C598.5 579.2 599.0 580.2 599.3 580.5C599.7 580.8 600.2 581.9 600.5 582.8C600.8 583.8 601.4 584.9 601.8 585.3C602.3 585.8 602.8 586.6 602.9 587.3C603.2 589.0 603.5 589.5 604.8 590.3C605.5 590.8 606.0 591.4 606.2 592.0C606.3 592.6 606.7 593.4 607.2 593.9C607.6 594.4 608.5 595.9 609.1 597.2L610.3 599.7L610.3 646.2C610.3 692.2 610.3 692.7 609.7 693.3C609.0 694.0 608.6 694.0 596.0 694.0C583.4 694.0 583.1 694.0 582.2 693.3ZM669.3 693.6C668.6 693.3 666.9 690.1 666.5 688.5C666.4 688.0 665.8 687.0 665.2 686.2C664.5 685.5 663.9 684.5 663.8 684.0C663.7 683.4 663.0 682.2 662.3 681.1C661.6 680.0 660.7 678.2 660.3 677.0C660.0 675.8 659.4 674.5 659.0 674.2C658.6 673.8 658.2 672.9 658.0 672.1C657.8 671.4 657.2 670.3 656.6 669.7C656.1 669.1 655.6 668.1 655.5 667.3C655.3 666.5 654.8 665.4 654.2 664.7C653.6 663.9 653.0 662.8 652.9 662.2C652.7 661.3 652.3 660.8 651.5 660.2C650.2 659.4 649.7 658.4 649.7 656.8C649.7 655.2 649.0 653.7 647.7 652.5C647.2 652.0 646.6 651.2 646.5 650.7C646.4 650.2 645.8 649.0 645.2 648.0C644.5 647.0 644.0 645.9 644.0 645.4C644.0 645.0 643.4 644.0 642.7 643.2C641.8 642.2 641.3 641.3 641.3 640.7C641.3 639.9 640.3 638.1 637.9 634.8C637.4 634.2 637.0 633.1 636.9 632.4C636.7 631.5 636.4 630.9 635.5 630.3C634.7 629.6 634.3 629.0 634.2 627.9C634.0 627.1 633.6 626.0 633.2 625.3C632.7 624.7 632.2 623.5 632.0 622.7C631.8 621.7 631.3 620.9 630.5 620.2C629.8 619.5 629.3 618.8 629.3 618.3C629.3 616.9 628.7 615.4 627.8 614.9C627.4 614.6 626.9 613.8 626.7 613.0C626.4 612.1 625.8 611.2 625.1 610.5C624.1 609.6 623.9 609.1 623.6 607.6C623.4 606.0 622.9 605.0 620.6 601.5C619.0 599.1 617.6 596.6 617.3 595.8C617.1 595.1 616.7 594.3 616.5 594.0C616.2 593.7 615.8 592.8 615.5 592.0C615.2 591.2 614.6 590.2 614.2 589.6C613.7 589.1 613.3 588.4 613.3 588.0C613.3 587.7 613.1 587.1 612.8 586.7C612.0 585.5 609.7 581.0 609.7 580.5C609.7 580.3 609.2 579.5 608.7 578.8C608.1 578.1 607.5 577.0 607.3 576.3C607.1 575.6 606.6 574.6 606.1 574.0C605.3 573.0 604.5 571.6 603.4 569.5C602.8 568.1 602.2 567.1 599.7 562.7C598.6 560.6 597.4 558.4 597.1 557.8C596.8 557.3 596.3 556.5 596.0 556.1C595.6 555.6 595.1 554.5 594.8 553.5C594.5 552.5 593.9 551.0 593.3 550.1C592.8 549.2 592.3 548.4 592.3 548.3C592.3 547.9 588.2 540.6 587.5 539.6C587.1 539.1 586.6 537.9 586.3 537.0C586.0 535.7 585.6 535.1 584.8 534.5C584.0 533.9 583.6 533.2 583.3 532.2C583.1 531.5 582.7 530.2 582.2 529.4C581.6 528.1 581.5 527.5 581.5 522.6C581.5 517.4 581.5 517.3 582.3 516.6C583.0 516.0 583.8 516.0 595.5 516.0C607.6 516.0 608.0 516.0 608.7 516.7C609.0 517.0 609.3 517.6 609.3 518.0C609.3 518.3 609.7 519.2 610.2 519.9C610.7 520.6 611.2 521.7 611.4 522.5C611.6 523.2 612.1 524.2 612.5 524.8C613.0 525.4 613.3 526.0 613.3 526.2C613.3 526.4 613.8 527.1 614.3 527.8C614.9 528.5 615.4 529.4 615.5 529.8C615.7 530.2 616.1 531.0 616.5 531.5C617.0 532.1 617.3 532.8 617.3 533.0C617.3 533.7 618.9 536.9 619.7 537.9C620.0 538.4 620.5 539.4 620.7 540.1C620.9 540.9 621.5 542.0 622.1 542.7C623.6 544.2 624.6 545.9 625.2 547.9C625.4 548.8 625.9 549.8 626.2 550.0C626.5 550.3 627.0 551.2 627.4 552.0C627.8 552.8 628.3 553.8 628.6 554.2C629.4 555.0 632.5 561.0 633.0 562.6C633.2 563.3 633.9 564.4 634.4 565.1C634.9 565.9 635.3 566.7 635.3 567.1C635.3 567.4 635.8 568.1 636.3 568.7C636.8 569.3 637.6 570.5 638.0 571.3C638.5 572.1 639.0 573.1 639.2 573.5C639.5 573.8 639.7 574.5 639.7 574.9C639.7 575.9 640.5 577.5 641.2 577.8C641.6 578.0 643.9 582.5 644.5 584.4C644.6 584.8 645.2 585.7 645.7 586.4C646.2 587.0 646.8 588.1 647.1 588.7C647.4 589.4 647.8 590.0 647.9 590.1C648.1 590.2 648.5 591.1 648.9 592.1C649.2 593.0 649.8 594.4 650.4 595.2C650.9 595.9 651.4 597.1 651.6 597.9C651.8 598.6 652.3 599.5 652.7 599.9C653.1 600.2 653.9 601.5 654.5 602.7C655.1 603.9 656.0 605.5 656.6 606.2C657.2 606.9 657.8 608.2 658.2 609.6C658.5 611.1 659.0 612.2 659.9 613.1C660.5 613.8 661.0 614.6 661.0 614.8C661.0 615.1 661.5 615.8 662.0 616.5C662.6 617.1 663.2 618.1 663.4 618.7C663.6 619.3 664.2 620.4 664.7 621.0C665.2 621.6 665.7 622.7 666.0 623.4C666.2 624.0 666.7 624.9 667.0 625.2C667.4 625.5 667.9 626.5 668.2 627.4C668.4 628.3 668.9 629.4 669.3 629.9C669.6 630.4 670.1 631.4 670.3 632.1C670.4 632.7 671.0 633.8 671.4 634.4C671.9 635.0 672.4 636.0 672.5 636.6C672.6 637.2 673.1 638.1 673.5 638.6C673.9 639.1 674.5 640.1 674.8 640.8C675.1 641.5 675.8 642.6 676.3 643.2C676.8 643.8 677.4 644.8 677.5 645.4C677.6 646.0 678.1 647.1 678.6 647.8C679.1 648.4 679.6 649.8 679.9 650.8C680.2 652.0 680.6 652.7 681.3 653.3C681.9 653.7 682.5 654.6 682.7 655.4C682.9 656.1 683.5 657.2 684.0 657.8C684.5 658.3 685.0 659.2 685.2 659.7C685.3 660.1 685.8 661.0 686.3 661.6C686.9 662.1 687.4 663.1 687.5 663.7C687.6 664.3 688.1 665.4 688.5 666.0C688.8 666.6 689.7 668.4 690.4 670.0C691.1 671.6 692.1 673.2 692.5 673.7C692.9 674.1 693.5 675.2 693.8 676.0C694.1 676.8 694.8 677.9 695.3 678.4L696.2 679.4L696.3 686.0C696.4 692.3 696.3 692.7 695.7 693.3C695.0 694.0 694.7 694.0 682.4 694.0C674.5 694.0 669.6 693.9 669.3 693.6ZM774.9 693.6C774.3 693.2 774.3 692.2 774.1 676.9L774.0 660.7L774.7 659.9L775.5 659.0L800.0 659.0C821.6 659.0 824.5 659.0 825.0 659.5C825.6 660.1 825.9 663.5 825.5 666.2C825.3 667.7 825.0 668.3 823.8 669.7C823.0 670.6 822.1 671.9 821.7 672.6C821.4 673.3 820.7 674.2 820.2 674.6C819.7 675.1 818.9 676.1 818.4 677.0C817.9 677.8 816.7 679.3 815.7 680.3C814.6 681.3 813.1 683.2 812.2 684.5C810.4 687.1 809.0 689.0 806.8 691.5L805.3 693.2L797.7 693.4C777.8 694.0 775.5 694.1 774.9 693.6ZM694.8 660.6C694.6 660.4 694.3 659.6 694.2 659.0C694.1 658.3 693.7 657.5 693.3 657.2C693.0 656.8 692.4 655.8 692.1 654.8C691.9 653.8 691.4 652.8 691.0 652.6C690.3 652.1 688.2 647.7 687.7 645.8C687.5 645.0 687.1 644.2 686.8 644.0C686.2 643.7 685.2 642.2 683.0 637.8C682.3 636.4 681.4 634.6 681.0 634.0C680.6 633.4 680.3 632.6 680.3 632.3C680.3 632.0 679.8 631.1 679.2 630.4C678.6 629.6 678.0 628.5 677.8 627.9C677.7 627.3 677.2 626.5 676.8 626.0C676.4 625.5 675.9 624.5 675.7 623.7C675.5 622.8 674.9 621.8 674.2 621.0C673.6 620.4 672.9 619.2 672.7 618.5C672.5 617.7 672.1 616.9 671.8 616.6C671.5 616.4 671.0 615.6 670.6 614.8C670.3 614.1 669.6 613.0 669.2 612.4L668.3 611.2L668.4 564.2L668.5 517.3L669.3 516.6C670.0 516.0 670.8 516.0 682.2 516.0C690.2 516.0 694.6 516.1 695.0 516.4C695.4 516.5 695.8 517.0 696.0 517.5C696.3 518.4 696.5 659.6 696.2 660.4C695.9 661.1 695.2 661.2 694.8 660.6ZM343.0 648.4L342.2 647.7L342.0 637.0L341.8 626.3L340.1 624.6L338.4 623.0L330.8 623.0C322.0 623.0 320.8 622.8 320.4 621.2C320.1 620.2 320.2 590.9 320.5 589.4C320.8 588.1 322.1 588.0 337.0 588.1C352.7 588.2 352.4 588.1 353.5 590.4C353.8 590.9 354.9 592.5 356.0 593.8C357.0 595.1 358.3 596.9 358.8 597.8C359.2 598.8 359.9 599.8 360.3 600.2C360.7 600.5 361.3 601.4 361.7 602.0C362.0 602.7 362.5 603.4 362.9 603.7C363.2 604.0 363.8 604.9 364.2 605.8C364.6 606.8 365.3 607.9 365.8 608.3C366.8 609.2 369.0 612.5 369.0 613.0C369.0 613.2 369.5 613.9 370.1 614.5L371.2 615.8L371.2 631.8L371.2 647.7L370.4 648.4C369.6 649.0 368.9 649.0 356.7 649.0C344.4 649.0 343.7 649.0 343.0 648.4ZM796.9 648.3C796.4 647.6 796.3 646.0 796.3 637.4C796.3 626.5 796.4 626.8 794.4 624.4L793.3 623.0L784.3 622.9C776.2 622.8 775.3 622.8 774.8 622.2C774.2 621.7 774.2 620.5 774.1 605.6L774.1 589.5L774.9 588.8L775.6 588.0L790.2 588.0C801.6 588.0 804.9 588.1 805.8 588.5C807.3 589.1 809.9 592.0 810.8 594.1C811.2 595.1 812.1 596.3 812.6 596.8C813.2 597.4 813.7 598.0 813.7 598.2C813.7 598.4 814.3 599.3 815.0 600.2C815.7 601.0 816.3 601.9 816.3 602.2C816.3 602.5 816.9 603.4 817.7 604.1C818.4 604.8 819.3 606.0 819.7 606.8C820.0 607.5 820.7 608.6 821.3 609.1C821.9 609.7 822.4 610.6 822.5 611.3C822.7 612.1 823.2 612.9 824.1 613.7L825.4 615.0L825.4 631.4C825.3 645.8 825.2 647.9 824.8 648.4C824.3 649.0 823.2 649.0 810.8 649.0L797.4 649.0L796.9 648.3ZM146.1 622.6C145.2 622.4 145.0 622.1 144.7 621.1C144.4 620.2 144.3 611.1 144.4 591.4C144.5 563.7 144.5 562.9 145.1 562.5C145.7 562.1 148.0 562.0 158.2 562.0C169.9 562.0 170.6 562.0 171.4 562.6L172.2 563.3L172.3 575.0C172.4 586.0 172.4 586.8 173.0 587.4C173.6 587.9 174.3 588.0 181.1 588.0C222.8 588.1 226.0 588.1 226.6 588.8C227.1 589.3 227.1 590.5 227.1 605.6C227.0 619.8 227.0 621.8 226.5 622.3C226.0 622.8 222.0 622.8 186.6 622.9C164.9 622.9 146.7 622.8 146.1 622.6ZM283.2 622.6C281.9 622.3 278.9 619.4 278.4 618.2C278.2 617.6 277.6 616.4 277.0 615.7C276.5 614.9 276.0 614.1 276.0 613.8C276.0 613.6 275.5 613.0 275.0 612.5C274.4 611.9 273.7 611.0 273.5 610.4C273.2 609.8 272.5 608.7 271.8 608.0C271.2 607.2 270.7 606.5 270.7 606.2C270.7 606.0 270.1 605.3 269.5 604.6C268.8 604.0 267.9 602.8 267.5 602.0C267.1 601.2 266.4 599.7 265.9 598.8C265.4 597.8 264.8 597.0 264.6 597.0C264.5 597.0 264.1 596.5 263.8 595.8C263.4 594.9 263.3 592.0 263.3 579.2L263.3 563.6L264.2 562.8L265.0 562.0L277.8 562.0C289.9 562.0 290.6 562.0 291.4 562.6L292.2 563.3L292.3 573.6L292.5 583.8L294.0 585.8C294.8 586.8 295.8 587.8 296.1 587.8C296.5 587.9 300.0 588.0 303.9 588.1C310.2 588.2 311.0 588.2 311.6 588.8C312.1 589.3 312.2 590.5 312.3 605.5C312.3 621.1 312.3 621.6 311.7 622.1C311.1 622.7 310.0 622.7 297.5 622.8C290.1 622.8 283.6 622.7 283.2 622.6ZM736.7 622.8C735.6 622.4 733.2 619.7 732.3 617.9C731.7 616.8 730.5 615.0 729.5 613.8C728.5 612.6 727.4 611.1 727.0 610.4C726.6 609.6 726.0 608.9 725.6 608.7C725.3 608.5 724.7 607.7 724.4 606.9C724.0 606.1 723.4 605.2 722.9 604.9C722.3 604.5 721.8 603.7 721.5 602.6C721.2 601.6 720.6 600.5 720.2 600.2C719.8 599.8 718.9 598.6 718.4 597.5L717.3 595.5L717.3 579.3C717.3 564.0 717.4 563.1 717.9 562.6C718.5 562.1 719.9 562.0 731.5 562.0C742.2 562.0 744.7 562.1 745.2 562.5C745.8 562.9 745.8 563.5 746.0 573.4L746.2 583.9L747.5 585.9L748.9 587.8L756.9 588.0C764.4 588.2 765.0 588.2 765.6 588.8C766.3 589.5 766.3 590.0 766.4 605.6L766.4 621.8L765.7 622.4C765.0 623.0 764.0 623.0 751.0 623.0C743.4 623.0 736.9 622.9 736.7 622.8ZM534.7 570.4C534.1 569.9 533.6 569.0 533.5 568.5C533.4 567.9 532.8 566.8 532.3 565.8C531.8 564.9 531.3 563.7 531.2 563.1C531.1 562.5 530.7 561.8 530.3 561.5C529.9 561.1 529.2 560.0 528.6 559.0C528.1 558.0 526.3 555.8 524.7 554.1L521.8 551.0L511.2 550.9L500.6 550.8L500.0 550.0C499.4 549.3 499.3 548.5 499.3 533.4L499.3 517.6L500.2 516.8L501.0 516.0L515.3 516.0L529.5 516.0L530.7 517.2C531.3 517.9 532.7 519.0 533.8 519.7C534.8 520.4 536.6 522.0 537.7 523.2C538.9 524.5 540.2 525.8 540.8 526.1C542.2 526.8 544.7 529.4 548.2 533.5C552.4 538.5 555.5 542.0 556.5 543.1C556.9 543.5 557.7 544.1 558.3 544.4C559.3 544.9 559.3 545.1 559.3 546.7L559.3 548.4L556.2 551.5C554.6 553.2 551.3 556.5 549.0 558.8C543.7 564.3 536.6 571.1 536.1 571.3C535.9 571.3 535.2 570.9 534.7 570.4ZM145.3 550.6C145.0 550.5 144.6 550.0 144.5 549.6C144.4 549.2 144.4 541.7 144.4 533.1L144.5 517.3L145.3 516.6C146.1 516.0 147.3 516.0 194.3 516.0C241.4 516.0 242.6 516.0 243.4 516.6L244.2 517.3L244.2 532.7C244.2 541.2 244.1 548.7 243.9 549.2C243.7 550.1 243.4 550.4 242.3 550.7C240.7 551.1 146.4 551.0 145.3 550.6ZM266.4 550.7C265.3 550.6 264.2 550.3 263.9 550.1C263.6 549.8 263.5 548.7 263.5 546.7C263.5 543.9 263.6 543.7 264.6 542.5C265.2 541.9 265.8 540.9 265.9 540.4C266.2 539.3 268.3 536.2 269.5 535.0C269.9 534.6 270.3 534.0 270.3 533.8C270.3 533.5 270.9 532.7 271.7 531.9C272.4 531.1 273.0 530.3 273.0 530.1C273.0 529.9 273.5 529.1 274.2 528.3C274.8 527.6 275.3 526.7 275.3 526.5C275.3 526.2 276.0 525.3 276.8 524.4C277.6 523.5 278.5 522.3 278.8 521.7C279.1 521.0 280.0 519.9 280.8 519.1C281.5 518.3 282.5 517.3 282.9 516.8L283.6 516.0L323.1 516.0C361.5 516.0 362.6 516.0 363.4 516.6L364.2 517.3L364.3 532.9C364.4 548.9 364.3 549.9 363.1 550.6C362.5 550.8 270.0 551.0 266.4 550.7ZM394.1 550.8C392.3 550.4 392.3 550.4 392.3 533.3L392.3 517.4L393.2 516.7C394.1 516.0 394.4 516.0 406.9 516.0C419.2 516.0 419.7 516.0 420.3 516.7C421.0 517.3 421.0 517.8 421.0 533.4C421.0 542.3 420.9 549.7 420.7 549.9C420.6 550.2 419.8 550.5 419.1 550.7C417.9 551.0 395.6 551.1 394.1 550.8ZM718.4 550.6C716.5 549.9 716.6 543.1 718.5 541.9C718.9 541.6 719.5 540.7 719.7 539.9C720.0 539.0 720.5 538.4 721.3 537.9C722.0 537.5 722.7 536.6 723.2 535.5C724.3 533.2 725.3 531.8 726.8 530.3C727.5 529.6 728.3 528.5 728.5 527.8C728.8 527.2 729.4 526.2 729.9 525.6C730.4 525.0 731.4 523.7 732.1 522.7C732.7 521.7 734.3 519.7 735.5 518.4L737.8 516.0L775.3 515.9C796.0 515.9 814.0 515.8 815.4 515.8C819.6 515.8 819.3 514.4 819.3 533.5C819.3 546.8 819.3 549.6 818.9 550.2C818.4 550.8 817.5 550.8 768.7 550.9C741.4 550.9 718.8 550.8 718.4 550.6ZM332.3 470.3C331.3 470.1 329.8 469.8 329.0 469.5C328.2 469.3 326.6 469.0 325.6 468.9C324.5 468.7 323.0 468.4 322.3 468.0C321.6 467.6 320.8 467.3 320.6 467.3C319.5 467.3 314.7 465.6 312.7 464.4C311.5 463.7 309.2 462.6 307.7 461.8C305.4 460.7 304.0 459.6 300.8 456.7C294.5 451.0 290.1 444.6 288.5 438.8C288.2 437.7 287.4 434.9 286.6 432.6L285.3 428.3L285.4 421.8C285.5 415.4 285.6 415.1 286.4 413.3C287.0 412.2 287.3 410.9 287.3 410.0C287.3 409.1 287.7 407.8 288.1 406.8C288.5 405.9 289.2 404.0 289.6 402.7C290.1 401.3 290.6 399.7 290.9 399.2C292.1 396.9 300.1 388.0 302.0 386.9C302.7 386.5 304.5 385.3 306.1 384.3C309.4 382.0 313.6 379.9 316.0 379.2C317.0 378.9 319.6 378.1 321.7 377.5L325.5 376.2L333.3 376.2C341.1 376.2 347.3 376.8 349.1 377.7C349.4 377.9 350.8 378.3 352.2 378.5C353.6 378.8 355.2 379.2 355.7 379.5C356.3 379.8 357.7 380.3 358.8 380.5C359.9 380.7 361.7 381.4 362.8 381.9C363.9 382.5 365.5 383.1 366.2 383.3C367.0 383.5 367.9 383.9 368.4 384.3C368.8 384.6 371.0 385.8 373.2 387.0C377.7 389.4 382.9 392.5 385.6 394.4C386.7 395.1 388.3 396.3 389.3 396.9C397.8 402.5 399.1 403.4 401.7 405.7C405.2 408.8 406.6 409.0 407.9 406.4C409.9 402.6 412.8 397.7 413.6 396.8C414.6 395.8 417.7 390.4 418.2 389.0C418.3 388.5 419.2 386.6 420.2 384.7C423.2 378.6 425.6 373.6 426.8 370.7C427.5 369.1 428.5 366.8 429.0 365.6C429.6 364.4 430.0 363.3 430.0 363.2C430.0 363.1 430.3 362.5 430.6 362.1C431.3 361.1 432.5 358.2 434.0 354.0C434.6 352.4 435.3 350.6 435.7 349.8C437.7 345.6 441.4 335.9 443.0 330.4C443.4 329.2 444.1 327.4 444.7 326.4C445.6 324.6 446.8 321.6 449.2 314.3C449.7 312.8 450.3 311.1 450.6 310.5C450.9 310.0 451.3 308.8 451.5 307.8C451.8 306.9 452.8 303.8 453.8 300.8C456.6 293.0 458.9 286.6 460.0 283.2C460.6 281.5 461.4 279.6 461.7 279.0C462.5 277.7 463.5 275.1 464.2 272.4C464.5 271.4 465.2 269.5 465.7 268.2C466.3 266.9 467.0 264.6 467.4 263.2C468.0 260.7 468.4 259.7 470.5 254.9C470.9 253.8 471.3 252.7 471.3 252.4C471.3 252.2 471.7 251.3 472.1 250.6C472.4 249.8 473.0 248.3 473.4 247.3C474.1 245.0 476.1 240.2 477.5 237.2C478.1 235.9 478.7 234.4 478.9 233.9C479.0 233.3 479.6 231.9 480.2 230.8C480.8 229.6 481.3 228.4 481.3 228.2C481.3 227.6 482.6 224.8 486.0 217.8C487.7 214.4 489.0 211.5 489.0 211.3C489.0 211.0 489.7 209.6 490.5 208.2C491.3 206.7 492.7 204.0 493.6 202.2C494.6 200.3 496.0 197.7 496.8 196.3C497.6 195.0 498.6 193.2 499.0 192.3C499.4 191.5 500.0 190.5 500.5 190.0C500.9 189.5 501.9 188.0 502.7 186.7C503.5 185.3 504.5 183.6 505.0 182.8C505.5 182.1 506.9 180.0 508.1 178.1C514.3 168.8 525.9 155.7 535.2 147.6C538.7 144.5 546.5 138.9 550.5 136.7C551.3 136.2 552.6 135.4 553.5 134.8C554.4 134.2 555.9 133.4 556.8 133.1C557.7 132.8 559.4 132.1 560.5 131.5C561.6 130.9 563.8 130.1 565.3 129.6C569.3 128.3 571.0 127.8 572.2 127.4C572.7 127.2 575.1 126.6 577.4 126.2C581.6 125.3 581.7 125.3 582.9 125.9C583.7 126.3 584.4 127.0 584.8 127.7C585.4 128.9 585.4 129.0 584.9 129.8C584.6 130.3 583.4 131.3 582.2 132.0C573.4 137.6 571.2 139.3 565.0 145.4C559.3 151.0 555.5 155.3 554.2 157.6C553.9 158.1 552.8 159.6 551.8 161.0C548.8 165.2 547.4 167.4 546.0 170.2C545.3 171.6 543.7 174.3 542.6 176.0C540.7 178.9 533.7 192.5 533.2 194.3C533.0 194.8 532.8 195.3 532.6 195.5C532.5 195.7 532.0 196.8 531.7 197.8C531.3 198.9 530.9 199.9 530.7 200.1C530.5 200.3 530.1 201.4 529.8 202.4C529.5 203.5 528.1 206.7 526.6 209.7C525.2 212.6 524.0 215.2 524.0 215.3C524.0 215.5 523.6 216.4 523.2 217.4C522.7 218.4 522.2 219.8 521.9 220.7C521.4 222.3 520.0 225.9 518.3 230.2C517.8 231.6 517.1 233.5 516.9 234.3C516.6 235.2 516.1 236.4 515.7 237.2C515.3 237.9 515.0 238.7 515.0 239.0C515.0 239.3 514.7 240.2 514.3 241.0C513.9 241.8 513.5 243.4 513.3 244.5C513.1 245.6 512.6 247.0 512.2 247.7C511.8 248.3 511.2 249.8 510.9 251.0C510.6 252.2 509.8 254.2 509.3 255.4C508.8 256.6 508.3 257.9 508.3 258.2C508.3 258.4 508.0 259.4 507.5 260.3C507.1 261.1 506.6 262.4 506.5 263.0C506.4 263.6 506.0 264.8 505.7 265.7C505.3 266.5 504.8 267.9 504.5 268.8C503.2 272.6 502.4 274.9 501.9 275.8C501.6 276.4 501.3 277.1 501.3 277.5C501.3 277.9 501.0 278.8 500.7 279.5C500.4 280.3 499.9 281.7 499.7 282.6C499.5 283.6 499.1 284.7 498.8 285.1C498.5 285.6 498.0 286.9 497.7 288.0C496.7 291.2 495.7 294.3 494.9 296.0C494.5 296.8 494.1 298.2 493.8 299.0C493.6 299.8 492.9 301.8 492.2 303.3C491.6 304.9 490.6 307.8 489.9 309.8C488.6 313.7 484.9 323.2 484.4 323.8C484.1 324.1 483.5 325.9 482.5 329.9C482.1 331.5 480.9 334.4 479.8 336.3C477.6 340.5 476.3 343.3 475.0 347.3C474.7 348.3 474.0 349.9 473.6 350.8C473.1 351.8 472.1 353.8 471.5 355.5C469.0 361.7 468.6 362.6 467.5 364.8C466.8 366.1 466.3 367.3 466.3 367.5C466.3 368.0 462.4 375.7 461.8 376.3C461.6 376.6 460.8 378.1 460.0 379.6C459.3 381.1 458.0 383.3 457.3 384.6C456.5 385.8 454.6 389.5 453.0 392.7C450.0 398.5 447.9 401.9 444.1 407.0C442.9 408.6 441.6 410.4 441.2 411.0C439.3 413.8 437.9 415.6 436.5 417.3C435.7 418.3 434.2 420.4 433.1 421.9C430.5 425.8 430.7 426.0 441.0 431.0C442.6 431.7 444.4 432.6 445.0 433.0C447.9 434.6 460.9 440.0 462.0 440.0C462.4 440.0 463.4 440.3 464.3 440.6C468.3 442.3 476.3 444.1 480.8 444.4C482.1 444.5 483.8 444.9 484.5 445.2C487.0 446.4 510.6 445.9 514.3 444.7C515.3 444.3 517.4 443.9 518.8 443.7C522.7 443.1 533.5 439.8 536.9 438.1C537.6 437.7 539.3 437.0 540.7 436.6C543.9 435.5 547.4 433.8 551.3 431.7C553.1 430.7 555.3 429.4 556.4 428.9C557.4 428.3 558.9 427.4 559.6 426.8C563.9 423.8 568.5 420.2 570.6 418.4C571.9 417.3 573.6 416.1 574.3 415.7C574.9 415.4 577.1 413.3 579.2 411.2C582.9 407.2 584.0 405.9 587.2 401.8C588.2 400.4 589.5 399.0 590.1 398.6C591.9 397.3 599.2 385.9 603.2 378.0C604.0 376.5 605.0 374.5 605.5 373.7C608.1 368.6 609.7 364.7 611.2 359.5C611.6 357.8 612.3 355.8 612.6 355.0C612.8 354.2 613.3 352.4 613.5 351.0C613.8 349.6 614.3 347.6 614.7 346.5C615.0 345.4 615.3 343.8 615.3 343.0C615.3 342.1 615.6 340.3 616.0 339.0C617.2 334.3 617.3 332.5 617.4 319.7C617.4 306.7 617.2 304.1 616.0 300.8C615.8 300.4 615.7 299.0 615.7 297.9C615.7 296.7 615.4 295.1 615.2 294.4C614.9 293.6 614.5 292.1 614.3 290.9C614.1 289.8 613.7 288.5 613.5 288.1C613.2 287.7 612.5 286.0 612.0 284.3C610.9 281.0 607.3 273.8 605.6 271.6C603.5 268.7 602.8 267.8 602.1 266.6C600.5 264.0 592.0 256.6 588.9 255.1L587.7 254.5L581.2 257.8C577.7 259.6 574.1 261.3 573.2 261.5C572.2 261.7 570.6 262.3 569.5 262.7C567.0 263.5 565.0 264.2 562.8 265.0C561.9 265.3 560.6 265.8 560.1 266.1C559.5 266.4 557.9 266.8 556.6 267.0C555.3 267.2 553.3 267.7 552.3 268.1C550.8 268.6 549.5 268.8 544.6 268.9C533.1 269.2 526.9 267.6 521.6 262.8C518.8 260.1 517.9 258.1 517.7 253.8C517.6 250.5 517.6 250.3 518.7 247.9C521.0 242.9 525.0 239.7 534.0 235.5C535.4 234.9 537.4 234.2 538.4 234.0C539.5 233.9 540.7 233.5 541.2 233.2C541.8 233.0 542.9 232.6 543.8 232.5C544.8 232.4 546.6 232.0 548.0 231.6C550.1 231.1 551.7 231.0 559.0 231.0C565.2 231.0 568.3 231.1 570.3 231.5C571.9 231.8 574.5 232.2 576.2 232.5C577.8 232.8 580.4 233.3 581.8 233.7C586.7 234.9 587.3 234.9 589.1 233.7C593.1 231.0 605.3 217.7 608.9 212.2C612.3 206.9 619.0 194.6 619.0 193.5C619.0 193.3 619.3 192.5 619.7 191.8C620.8 189.8 622.7 185.0 622.7 184.5C622.7 184.2 622.9 183.5 623.2 182.9C623.5 182.3 624.0 180.9 624.2 179.8C624.4 178.7 624.8 177.2 625.0 176.3C626.0 172.2 626.3 168.3 626.5 159.7C626.7 149.9 626.7 150.1 624.8 142.5C624.2 140.0 622.4 135.1 622.0 134.5C621.8 134.3 621.5 133.5 621.2 132.7C620.9 131.9 620.3 130.8 619.9 130.2C619.4 129.7 618.7 128.3 618.2 127.3C617.2 125.1 615.9 123.5 611.2 118.9C607.7 115.4 607.1 115.1 599.8 110.9C597.0 109.3 589.7 106.3 586.3 105.4C580.5 103.8 574.8 103.2 564.2 103.1C554.7 103.0 554.2 103.0 550.3 103.8C548.1 104.3 545.7 104.7 545.0 104.7C544.3 104.7 542.8 105.0 541.6 105.3C540.5 105.7 539.1 106.0 538.5 106.0C537.9 106.0 536.9 106.3 536.1 106.7C535.3 107.0 533.7 107.5 532.6 107.7C531.4 107.9 529.7 108.4 528.7 108.8C527.7 109.3 526.2 109.7 525.5 109.8C523.7 110.1 520.9 111.2 518.1 112.7C515.5 114.2 515.7 113.8 513.8 119.8C513.2 122.0 512.1 124.9 511.4 126.2C509.2 130.6 508.2 132.5 507.7 133.3C507.4 133.8 506.5 135.4 505.7 136.8C503.5 140.9 499.7 145.9 492.3 154.3C486.0 161.6 480.6 167.3 478.4 168.9C477.3 169.6 475.6 171.1 474.5 172.2C473.4 173.3 471.8 174.8 470.8 175.5C469.9 176.2 467.8 178.0 466.2 179.4C464.5 180.7 462.6 182.2 462.0 182.7C461.4 183.1 459.2 184.9 457.2 186.6C455.2 188.2 452.8 190.1 451.9 190.6C450.9 191.2 449.3 192.3 448.3 193.3C447.3 194.2 445.8 195.2 445.0 195.7C444.2 196.1 443.0 196.8 442.4 197.3C441.9 197.8 440.2 198.9 438.8 199.8C437.3 200.7 435.7 201.9 435.2 202.4C434.6 202.9 433.0 203.9 431.5 204.7C423.5 208.8 420.0 211.2 420.0 212.6C420.0 212.8 419.6 214.2 419.0 215.6C418.4 216.9 418.0 218.4 418.0 218.8C418.0 219.3 417.6 220.6 417.0 221.7C416.5 222.9 416.0 224.1 416.0 224.5C416.0 224.8 415.6 225.9 415.2 227.0C414.8 228.0 414.3 229.4 414.1 230.2C413.9 230.9 413.4 232.2 413.1 233.2C412.7 234.1 411.9 236.4 411.3 238.3C410.7 240.3 409.9 242.8 409.5 243.9C409.0 245.1 408.7 246.3 408.7 246.8C408.7 247.2 408.4 248.1 408.0 248.9C407.7 249.7 407.2 251.2 407.0 252.2C406.8 253.2 406.4 254.5 406.2 255.0C405.9 255.6 405.4 256.9 405.1 257.9C404.9 258.9 404.5 260.0 404.2 260.4C403.9 260.8 403.5 262.4 403.2 263.8C402.9 265.3 402.4 267.1 402.2 267.8C401.9 268.6 401.6 270.0 401.4 270.9C401.2 271.9 400.7 273.2 400.4 273.9C400.0 274.6 399.6 275.9 399.4 276.8C399.1 277.8 398.7 279.0 398.3 279.5C398.0 280.1 397.5 281.4 397.3 282.4C397.1 283.4 396.7 284.6 396.4 285.2C396.1 285.7 395.7 287.1 395.5 288.2C395.0 290.4 394.0 294.0 393.2 296.3C392.0 300.0 391.0 303.5 391.0 304.1C391.0 304.4 390.7 305.5 390.4 306.5C390.0 307.5 389.6 309.5 389.5 310.8C389.3 312.1 389.0 313.8 388.8 314.5C388.3 315.8 387.7 320.2 387.0 326.7C386.6 330.3 386.8 336.5 387.5 339.7C387.7 340.9 388.6 343.1 389.4 344.7C390.7 347.2 391.1 347.6 393.0 348.9C396.3 351.1 399.3 351.2 402.3 349.4C403.2 348.8 404.5 348.0 405.3 347.6C407.1 346.6 412.8 341.4 415.5 338.3C417.8 335.8 420.8 331.7 424.0 326.8C426.2 323.6 427.6 322.0 428.5 322.0C429.2 322.0 430.6 323.9 431.0 325.3C431.3 326.2 431.3 326.9 430.9 328.2C429.7 332.4 426.6 338.6 423.6 342.8C422.4 344.4 420.9 346.4 420.2 347.4C418.7 349.6 413.4 355.1 411.2 356.9C410.2 357.6 408.7 358.8 407.7 359.4C406.7 360.1 405.1 361.2 404.2 361.8C401.9 363.5 399.5 364.5 395.7 365.5C387.4 367.6 381.9 368.3 379.7 367.7C379.0 367.5 376.8 366.9 374.7 366.3C369.1 364.9 366.2 363.3 362.4 359.6C358.2 355.4 354.7 350.0 354.1 346.7C354.0 346.0 353.7 344.6 353.3 343.4C353.0 342.3 352.6 340.3 352.5 339.1C352.4 337.8 352.1 335.4 351.8 333.7C351.4 331.0 351.4 328.9 351.6 321.3C351.9 315.4 352.1 311.5 352.4 310.3C352.7 309.3 353.0 307.3 353.1 305.8C353.3 304.2 353.5 302.6 353.7 302.1C353.9 301.6 354.3 300.2 354.5 299.0C355.0 296.3 355.6 294.1 356.4 291.5C356.7 290.4 357.1 288.6 357.3 287.6C357.5 286.5 357.8 285.5 357.9 285.3C358.0 285.1 358.3 284.1 358.5 283.0C358.7 282.0 359.3 279.8 359.8 278.2C360.3 276.5 361.0 274.3 361.2 273.2C361.5 272.1 362.0 270.5 362.3 269.7C362.8 268.2 363.3 266.5 364.6 261.8C365.0 260.4 365.7 258.4 366.2 257.3C366.7 256.1 367.3 254.2 367.5 253.0C367.9 251.1 369.0 247.5 372.5 237.0C373.8 233.0 373.5 232.0 371.1 233.2C369.9 233.7 366.3 235.3 361.8 237.1C360.9 237.4 358.8 238.2 357.1 238.7C355.4 239.2 352.5 240.1 350.8 240.7C342.5 243.3 334.0 245.7 333.0 245.7C332.6 245.7 331.5 246.0 330.4 246.3C329.4 246.7 327.8 247.1 326.8 247.2C325.9 247.3 324.6 247.7 323.9 248.1C323.2 248.4 321.5 248.9 320.1 249.2C318.8 249.4 317.4 249.8 317.0 250.0C316.5 250.3 313.8 251.0 308.8 252.3C305.3 253.2 304.9 253.5 304.2 256.2C303.9 257.5 303.3 259.2 303.0 260.0C302.6 260.8 302.3 261.7 302.3 262.1C302.3 262.4 301.9 263.7 301.3 265.0C300.8 266.3 300.3 267.6 300.3 267.9C300.3 268.2 299.9 269.2 299.5 270.1C299.0 271.0 298.5 272.4 298.3 273.3C298.2 274.1 297.8 275.6 297.4 276.5C296.4 279.0 296.0 280.3 295.3 282.7C295.0 283.9 294.5 285.3 294.3 285.8C294.0 286.4 293.6 287.6 293.4 288.6C293.2 289.6 292.8 290.8 292.5 291.4C291.9 292.5 290.3 297.7 290.3 298.6C290.3 298.9 289.8 300.2 289.2 301.5C288.5 302.8 288.0 304.0 288.0 304.2C288.0 304.8 286.6 308.1 285.0 311.5C284.3 312.9 283.7 314.4 283.7 314.8C283.7 315.1 283.3 316.3 282.9 317.3C282.4 318.3 281.8 320.1 281.4 321.2C281.0 322.3 280.3 324.3 279.7 325.7C278.7 328.0 278.1 329.4 276.7 333.5C276.3 334.5 275.8 335.8 275.4 336.5C275.1 337.2 274.6 338.4 274.3 339.2C274.1 339.9 272.5 343.4 270.8 346.9C269.1 350.5 267.7 353.5 267.7 353.7C267.7 354.0 261.4 366.4 259.2 370.3C258.4 371.8 257.7 373.1 257.7 373.3C257.7 373.4 257.1 374.2 256.3 375.1C255.6 376.0 254.6 377.6 254.1 378.6C253.6 379.6 252.4 381.6 251.5 382.9C250.6 384.2 249.1 386.5 248.2 388.0C247.2 389.5 246.0 391.4 245.4 392.2C244.8 393.0 244.3 393.7 244.3 393.9C244.3 394.2 242.5 396.8 241.0 398.6C238.4 401.9 237.0 403.5 234.7 406.2C233.3 407.8 231.8 409.5 231.5 410.1C231.1 410.6 229.0 412.8 227.0 415.0C224.9 417.2 223.1 419.2 223.1 419.4C223.0 419.5 222.2 420.2 221.4 420.7C220.5 421.3 219.2 422.4 218.5 423.1C217.7 423.9 216.4 425.1 215.5 425.8C214.6 426.6 213.2 427.7 212.5 428.3C209.2 431.1 208.4 431.6 207.0 432.3C206.2 432.7 204.7 433.7 203.6 434.4C200.7 436.4 192.8 440.5 189.0 442.0C183.9 444.0 176.4 446.2 173.8 446.4C172.3 446.6 169.9 447.0 168.5 447.4C166.1 448.0 165.1 448.0 159.5 447.9C154.5 447.8 152.9 447.7 151.9 447.2C151.2 446.9 149.5 446.5 148.1 446.3C146.7 446.1 144.4 445.6 143.0 445.1C139.7 443.9 131.3 439.5 129.5 438.0C128.8 437.4 127.3 436.3 126.2 435.5C125.1 434.8 123.6 433.6 123.0 432.7C122.4 431.9 121.1 430.2 120.1 428.9C119.1 427.7 117.5 425.1 116.5 423.1C115.5 421.1 114.3 419.1 114.0 418.7C113.6 418.2 113.1 416.8 112.8 415.5C112.3 413.2 111.5 410.6 110.5 407.7C108.8 402.5 108.7 401.5 108.7 393.5C108.7 389.3 108.8 385.2 109.0 384.5C109.2 383.8 109.6 381.4 110.0 379.2C110.4 377.0 110.9 374.5 111.2 373.7C111.4 372.8 111.8 371.1 112.0 369.8C112.2 368.5 112.6 366.7 113.0 365.9C113.4 365.0 113.8 363.3 114.0 362.1C114.2 360.9 114.6 359.6 114.8 359.2C115.1 358.8 115.6 357.6 116.0 356.6C117.3 352.8 118.0 351.0 118.6 350.0C119.0 349.3 119.4 348.2 119.7 347.5C119.9 346.8 120.3 345.8 120.7 345.3C121.0 344.9 121.9 343.0 122.8 341.2C124.7 337.1 124.8 337.0 126.7 334.1C127.5 332.9 128.6 331.2 129.1 330.3C130.1 328.7 131.3 327.0 134.1 323.2C135.0 322.0 136.0 320.6 136.3 320.2C136.6 319.8 137.2 319.1 137.7 318.5C138.2 317.9 139.2 316.7 139.9 315.7C141.9 313.1 144.8 309.9 152.2 302.6C158.8 296.0 160.0 294.9 164.2 291.3C166.6 289.2 172.7 284.7 175.9 282.5C177.3 281.6 178.7 280.6 179.1 280.4C185.1 276.3 189.7 273.5 192.3 272.2C194.0 271.3 195.9 270.3 196.6 269.9C197.3 269.4 199.4 268.3 201.3 267.4C203.3 266.4 205.5 265.3 206.3 264.8C208.2 263.8 215.5 260.3 215.8 260.3C215.9 260.3 217.2 259.7 218.7 259.0C221.4 257.8 223.9 256.8 227.0 255.8C227.8 255.5 229.1 255.0 230.0 254.5C232.2 253.3 235.3 252.1 237.2 251.7C238.1 251.5 241.0 250.5 243.7 249.5C248.3 247.6 249.5 247.3 254.0 246.2C255.2 245.9 256.8 245.4 257.7 245.1C259.4 244.5 262.6 243.6 265.5 242.9C267.7 242.3 272.1 241.0 275.2 240.0C276.3 239.7 278.3 239.1 279.6 238.8C281.0 238.5 282.5 238.1 283.0 237.8C283.5 237.6 285.0 237.2 286.4 237.1C287.7 237.0 289.4 236.6 290.0 236.3C290.7 236.0 292.7 235.4 294.4 235.0C296.1 234.6 298.2 234.1 299.0 233.8C299.8 233.6 301.0 233.3 301.7 233.2C302.3 233.1 303.8 232.7 305.0 232.4C308.3 231.4 311.7 230.6 313.3 230.3C316.4 229.8 318.9 229.2 321.4 228.5C322.9 228.0 324.3 227.7 324.7 227.7C325.1 227.7 326.2 227.3 327.3 226.9C328.3 226.4 330.1 226.0 331.2 225.8C332.3 225.7 333.7 225.3 334.3 225.0C335.0 224.7 336.3 224.3 337.2 224.1C338.1 224.0 339.8 223.5 340.9 223.1C342.1 222.7 343.3 222.3 343.7 222.3C344.1 222.3 345.2 222.0 346.3 221.5C347.4 221.0 348.8 220.7 349.4 220.7C350.0 220.7 351.2 220.3 352.2 219.8C353.1 219.4 354.1 219.0 354.5 219.0C354.9 219.0 356.1 218.5 357.3 218.0C358.4 217.4 359.8 217.0 360.3 217.0C360.8 217.0 362.0 216.6 362.9 216.2C363.9 215.7 365.2 215.3 365.9 215.1C366.6 215.0 367.8 214.6 368.6 214.1C369.3 213.7 370.7 213.2 371.7 213.0C372.7 212.8 374.0 212.3 374.7 211.8C375.3 211.4 376.2 211.0 376.6 210.9C377.0 210.7 378.3 210.2 379.5 209.6C381.9 208.6 382.7 207.5 383.3 205.2C383.5 204.4 383.9 203.3 384.2 202.7C384.5 202.1 385.1 200.1 385.7 198.2C386.8 194.3 387.8 191.1 388.7 189.0C389.0 188.2 389.8 185.9 390.4 184.0C391.0 182.1 392.1 178.7 392.9 176.5C393.7 174.3 394.7 171.6 395.0 170.5C396.0 167.2 397.0 164.6 398.2 162.2C398.8 160.9 399.6 158.9 400.0 157.7C400.3 156.5 400.9 154.8 401.1 154.0C402.3 150.5 404.9 143.1 405.3 142.5C405.5 142.1 406.0 140.9 406.4 139.8C408.7 134.2 409.8 131.3 410.7 129.3C411.2 128.1 411.9 126.2 412.3 125.0C413.1 122.8 414.4 120.1 415.6 118.4C416.0 117.9 416.8 116.2 417.3 114.8C417.8 113.3 418.6 111.5 418.9 110.7C420.1 107.9 424.8 98.5 425.3 97.7C425.7 97.2 426.6 95.6 427.3 94.0C428.1 92.4 429.1 90.7 429.5 90.2C429.9 89.6 430.4 88.8 430.5 88.3C430.6 87.9 431.2 86.8 431.7 86.0C432.2 85.2 433.7 82.5 435.0 80.2C437.4 75.9 439.9 71.6 441.0 70.0C441.3 69.5 442.2 68.1 443.0 66.8C443.8 65.5 444.9 64.0 445.5 63.3C446.8 61.8 448.1 60.1 450.1 57.0C451.0 55.7 452.6 53.5 453.6 52.2C454.6 51.0 456.3 48.9 457.3 47.7C458.2 46.5 460.4 44.1 462.0 42.5C465.5 39.0 465.1 39.4 467.8 36.7C470.4 33.9 475.7 29.3 479.2 26.7C480.6 25.6 482.9 23.9 484.2 22.9C485.4 21.8 486.9 20.8 487.5 20.5C488.0 20.2 489.5 19.2 490.8 18.3C492.1 17.3 493.7 16.4 494.3 16.3C495.0 16.1 496.1 15.5 496.8 15.0C498.3 14.0 502.7 11.8 504.0 11.5C504.5 11.4 505.9 10.7 507.3 10.1C508.6 9.5 511.0 8.7 512.5 8.3C513.9 8.0 516.3 7.3 517.7 6.9C520.7 5.8 525.5 4.8 529.3 4.3C533.1 3.9 543.5 3.9 545.0 4.4C545.6 4.5 547.7 5.1 549.7 5.5C557.6 7.3 562.2 9.7 567.0 14.4C569.6 17.0 570.5 18.1 571.5 20.2C572.2 21.7 573.4 23.8 574.1 25.0C574.7 26.2 575.4 27.8 575.5 28.5C575.6 29.2 576.0 30.7 576.2 31.7C576.5 32.8 576.7 35.4 576.7 39.1C576.7 46.8 575.9 50.1 572.4 57.3C571.0 60.2 569.3 63.3 568.5 64.3C566.3 67.2 562.2 70.9 558.6 73.2C554.8 75.7 553.8 76.2 549.7 77.2C544.3 78.5 535.7 78.2 531.0 76.4C528.7 75.5 524.9 72.8 523.0 70.7C522.1 69.8 520.8 67.8 520.1 66.4L518.8 63.9L518.8 58.7L518.8 53.5L520.1 51.0C521.0 49.1 521.7 48.1 523.1 46.9C524.1 46.0 525.1 45.3 525.3 45.3C525.8 45.3 526.1 46.1 526.6 48.1C527.2 50.3 528.4 52.7 529.9 54.3C532.4 57.1 537.4 59.0 542.3 59.0C544.9 59.0 545.7 58.9 548.8 57.7C552.7 56.3 552.9 56.1 556.2 52.7C560.3 48.3 562.0 43.8 562.0 37.1C562.0 32.7 561.4 30.1 559.5 26.4C558.6 24.5 554.9 21.0 552.2 19.4C546.7 16.1 537.3 14.7 532.0 16.4C531.2 16.7 529.1 17.3 527.3 17.7C525.6 18.1 522.8 19.0 521.0 19.7C518.0 21.0 511.9 24.4 511.5 25.0C511.4 25.2 510.4 25.9 509.4 26.6C505.2 29.5 493.2 41.9 490.2 46.5C487.9 49.9 486.9 51.4 485.3 53.7C484.6 54.7 483.4 56.6 482.8 57.9C482.2 59.3 481.0 61.3 480.3 62.4C477.4 66.5 475.3 70.3 471.6 77.8C466.8 87.5 465.8 89.6 465.5 90.8C465.4 91.4 464.9 92.4 464.5 93.0C464.1 93.7 463.6 94.7 463.4 95.4C463.2 96.0 462.7 97.1 462.2 97.8C461.7 98.5 461.3 99.3 461.3 99.5C461.3 99.7 461.0 100.3 460.6 100.8C460.0 101.6 459.3 103.2 457.6 108.0C457.3 109.0 456.8 110.1 456.5 110.5C455.8 111.6 452.4 120.2 451.9 122.2C451.6 123.1 451.3 124.2 451.0 124.6C450.8 125.0 450.4 126.1 450.1 127.0C449.9 127.9 449.4 129.2 449.0 129.8C448.7 130.3 448.3 131.4 448.2 132.0C448.1 132.6 447.6 133.9 447.2 134.8C446.7 135.7 446.3 136.7 446.3 136.9C446.3 137.2 446.0 138.1 445.5 138.8C445.1 139.6 444.6 140.7 444.5 141.3C444.4 142.0 443.8 143.4 443.3 144.5C442.8 145.6 442.3 146.7 442.3 147.1C442.3 147.4 442.0 148.5 441.5 149.6C441.1 150.6 440.4 152.8 439.9 154.3C439.4 155.9 438.8 157.9 438.5 158.8C438.2 159.8 437.6 161.6 437.2 163.0C436.8 164.4 436.2 166.0 436.0 166.5C435.8 167.0 435.2 168.7 434.8 170.3C434.4 171.8 433.5 173.9 433.0 174.9C432.4 175.9 432.0 177.0 432.0 177.2C432.0 177.5 431.7 178.3 431.3 179.0C430.9 179.8 430.5 181.2 430.3 182.3C430.1 183.3 429.7 184.6 429.4 185.1C428.7 186.6 429.0 187.8 430.1 187.9C431.0 188.0 435.3 185.6 442.3 181.1C443.9 180.1 447.0 178.1 449.2 176.6C451.4 175.2 453.8 173.6 454.6 172.9C455.3 172.3 456.5 171.5 457.1 171.1C464.9 165.7 476.6 155.8 484.0 148.3C491.4 140.8 494.4 137.3 498.2 131.8C499.2 130.4 500.6 128.3 501.4 127.3C502.1 126.3 503.1 124.8 503.5 124.0C504.0 123.2 504.6 122.1 505.0 121.7C505.4 121.2 505.8 120.3 505.9 119.6C506.1 118.0 505.4 117.6 503.9 118.5C503.3 118.8 501.9 119.5 500.8 120.1C499.7 120.7 497.6 121.9 496.2 122.8C494.7 123.8 492.4 125.2 491.2 126.0C488.4 127.6 486.0 129.2 484.2 130.6C483.4 131.2 481.3 132.8 479.5 134.1C477.3 135.8 473.4 139.4 467.7 145.2C463.0 150.0 458.4 154.7 457.5 155.7C455.7 157.9 455.1 158.2 454.4 157.5C453.7 156.9 453.8 154.6 454.5 151.2C455.3 147.3 455.9 145.9 457.8 142.5C461.6 135.6 471.2 125.5 479.3 119.7C480.2 119.1 481.7 118.0 482.7 117.3C487.1 114.0 492.7 110.6 494.8 110.0C495.6 109.8 496.5 109.3 497.0 109.0C498.2 108.2 502.3 106.2 503.7 105.7C504.4 105.5 505.8 104.8 506.9 104.1C507.9 103.5 509.6 102.8 510.5 102.6C511.4 102.4 513.4 101.7 514.8 101.0C516.3 100.3 518.2 99.7 519.1 99.6C520.0 99.4 521.9 99.0 523.3 98.5C528.3 96.9 531.6 96.0 534.3 95.5C535.9 95.2 537.4 94.8 537.8 94.6C538.1 94.4 539.8 94.1 541.6 93.8C546.4 93.2 550.4 92.4 551.4 92.0C552.7 91.5 563.9 90.4 571.0 90.1C576.7 89.9 589.7 90.5 593.2 91.2C594.6 91.5 596.4 91.7 597.4 91.7C598.4 91.7 600.4 92.0 601.9 92.5C603.4 92.9 605.8 93.5 607.2 93.7C608.7 93.9 610.8 94.4 612.0 94.7C613.1 95.1 614.5 95.3 615.0 95.3C615.4 95.3 617.3 95.9 619.0 96.6C620.7 97.3 622.7 98.0 623.3 98.2C624.8 98.5 632.1 102.1 636.7 104.8C642.2 108.0 648.4 113.3 651.5 117.5C652.2 118.4 653.3 119.8 654.0 120.5C656.4 123.1 657.6 125.0 659.8 129.7C661.7 133.6 662.0 134.5 663.0 138.1C663.5 140.2 664.2 142.4 664.5 143.0C664.9 143.7 665.2 145.4 665.4 147.5C665.5 149.3 665.8 151.4 666.0 152.2C666.9 155.8 666.2 170.6 664.8 176.1C664.5 177.1 664.3 178.3 664.3 178.8C664.3 179.2 664.0 180.2 663.5 181.1C663.1 181.9 662.6 183.1 662.5 183.7C661.6 188.3 660.1 192.4 658.1 196.2C656.5 199.1 655.8 200.2 655.2 201.0C654.8 201.5 653.8 203.0 653.0 204.5C652.2 206.0 651.0 207.8 650.2 208.7C649.4 209.5 648.0 211.1 647.0 212.3C643.5 216.8 642.1 218.4 641.0 219.6C639.3 221.4 632.4 227.3 629.8 229.2C624.1 233.5 617.7 237.6 614.6 239.2C611.4 240.7 610.3 241.6 610.3 242.5C610.3 243.3 612.0 245.0 612.9 245.0C613.9 245.0 623.4 250.1 625.5 251.9C626.8 252.9 628.9 254.6 630.3 255.6C632.9 257.6 640.5 264.9 642.2 267.1C645.3 271.2 648.1 275.4 649.0 277.3C649.6 278.5 650.2 279.9 650.5 280.3C650.8 280.8 651.3 281.8 651.7 282.7C652.3 284.1 652.7 284.9 653.6 286.5C655.5 290.2 656.5 293.0 657.5 298.1C657.8 299.4 658.2 301.2 658.5 302.1C658.7 303.1 659.0 305.4 659.2 307.2C659.3 309.1 659.6 311.4 659.8 312.2C660.2 313.5 660.3 316.0 660.3 323.3C660.3 328.6 660.2 333.4 660.0 334.0C659.7 335.3 659.1 339.7 658.7 344.7C658.5 346.4 658.1 348.7 657.7 349.7C657.3 350.8 657.0 352.0 657.0 352.3C657.0 352.7 656.6 353.9 656.2 355.0C655.7 356.1 655.3 357.3 655.3 357.8C655.3 358.2 654.9 359.4 654.3 360.4C653.8 361.5 653.3 362.6 653.3 362.9C653.3 363.2 653.0 364.1 652.6 364.8C652.3 365.5 651.7 367.0 651.3 368.2C651.0 369.3 649.8 372.0 648.7 374.2C647.6 376.4 646.7 378.4 646.7 378.7C646.7 379.0 646.2 379.8 645.7 380.5C645.2 381.2 644.2 382.9 643.6 384.3C642.0 387.2 640.0 390.4 638.8 392.0C638.3 392.6 637.2 394.0 636.5 395.2C633.2 400.1 625.9 408.5 621.3 412.8C620.1 413.9 618.5 415.5 617.7 416.4C616.3 417.8 614.8 419.0 609.2 423.5C607.9 424.5 606.3 425.7 605.7 426.3C605.0 426.8 603.4 428.0 602.2 428.8C600.9 429.7 599.5 430.7 599.2 431.0C598.8 431.3 597.2 432.3 595.7 433.2C594.1 434.0 592.3 435.2 591.7 435.7C591.0 436.1 589.0 437.3 587.2 438.2C585.3 439.1 583.0 440.4 582.0 441.1C580.9 441.8 579.4 442.6 578.5 443.0C577.6 443.4 576.2 444.0 575.5 444.3C572.5 445.8 567.0 448.1 565.0 448.9C560.1 450.8 556.2 452.0 555.4 452.0C554.9 452.0 553.7 452.4 552.8 452.8C551.9 453.2 550.4 453.7 549.5 453.8C548.6 453.9 547.2 454.2 546.3 454.5C545.5 454.7 544.0 455.0 543.0 455.2C542.0 455.3 540.7 455.5 540.2 455.7C539.6 455.8 537.6 456.2 535.6 456.5C533.6 456.8 531.7 457.2 531.3 457.4C530.9 457.6 528.3 458.0 525.6 458.4C520.8 459.1 519.4 459.1 504.2 459.1C489.6 459.0 487.7 458.9 485.9 458.3C484.8 458.0 482.8 457.7 481.6 457.5C478.5 457.3 475.6 456.7 473.2 456.0C472.1 455.7 470.3 455.3 469.2 455.2C468.1 455.0 466.5 454.6 465.6 454.3C464.7 454.0 463.4 453.7 462.6 453.7C461.9 453.7 460.4 453.3 459.3 452.8C458.2 452.4 457.1 452.0 456.8 452.0C456.5 452.0 455.6 451.6 454.7 451.2C453.8 450.8 452.5 450.3 451.8 450.1C449.7 449.8 446.5 448.5 441.2 445.8C438.4 444.5 435.6 443.1 435.0 442.9C434.4 442.6 432.9 441.8 431.7 441.0C430.5 440.3 428.5 439.1 427.3 438.5C426.1 437.8 424.7 436.9 424.1 436.4C422.2 435.1 421.0 435.3 418.4 437.8C413.0 442.7 407.0 447.7 405.2 448.8C404.1 449.5 402.8 450.4 402.3 450.8C401.0 452.0 399.3 453.2 397.0 454.4C393.8 456.1 388.6 459.1 387.7 459.7C387.2 460.0 385.8 460.7 384.5 461.2C383.2 461.7 380.6 462.7 378.7 463.5C376.7 464.3 374.3 465.2 373.3 465.4C372.3 465.7 370.8 466.2 370.0 466.5C367.9 467.2 364.4 468.0 361.0 468.5C359.5 468.8 357.8 469.1 357.3 469.3C355.4 470.1 351.7 470.4 343.2 470.5C338.2 470.6 333.3 470.5 332.3 470.3ZM346.7 456.7C350.5 456.1 353.1 455.4 355.0 454.5C356.0 454.1 357.0 453.7 357.3 453.7C358.7 453.7 372.2 446.3 375.0 444.0C380.9 439.1 390.8 429.4 393.9 425.5C394.8 424.5 396.1 422.9 396.8 422.1C398.3 420.4 398.3 419.5 396.7 418.5C396.1 418.1 394.4 416.9 392.9 415.8C384.2 409.4 371.5 401.2 369.2 400.5C368.8 400.4 366.6 399.3 364.2 398.2C360.2 396.3 356.6 394.8 351.7 393.1C350.6 392.7 348.9 392.3 347.8 392.2C346.7 392.0 345.2 391.7 344.5 391.4C343.4 390.9 341.8 390.8 335.7 390.8L328.2 390.8L325.0 392.0C319.1 394.1 311.1 399.2 308.1 402.7C305.6 405.5 303.2 409.8 301.8 413.7C301.5 414.5 301.1 415.7 300.8 416.3C300.5 417.1 300.4 419.1 300.4 422.7C300.3 430.9 301.7 435.6 305.9 441.6C308.6 445.5 311.5 448.4 315.4 451.0C318.5 453.1 319.7 453.7 325.5 455.7L329.2 457.0L336.8 457.0C341.1 457.0 345.5 456.8 346.7 456.7ZM488.2 434.5C486.5 434.2 483.2 433.8 480.7 433.5C478.1 433.2 476.0 432.9 475.5 432.6C474.1 431.6 470.9 427.0 470.4 425.2C470.2 424.3 469.7 422.8 469.4 421.8C467.3 416.4 467.2 415.9 467.4 407.4C467.6 400.5 467.7 399.3 468.3 397.8C468.6 396.9 469.0 395.3 469.2 394.2C469.8 388.7 473.8 379.1 478.0 372.9C479.4 370.9 481.0 368.4 481.7 367.5C482.3 366.5 483.3 365.2 483.8 364.4C484.8 363.2 491.6 356.0 493.5 354.2C495.6 352.3 499.8 349.0 500.2 349.0C500.5 349.0 501.1 348.6 501.7 348.1C502.8 347.1 508.7 343.7 509.2 343.7C509.3 343.7 510.4 343.2 511.6 342.7C517.9 339.9 519.4 339.3 521.9 339.0C523.3 338.8 525.0 338.5 525.7 338.3C527.6 337.8 539.5 337.9 540.9 338.5C541.5 338.8 542.3 339.0 542.6 339.0C543.3 339.0 548.6 341.6 550.7 343.0C552.5 344.3 555.3 347.1 555.3 347.7C555.3 347.9 555.8 348.7 556.3 349.5C558.4 352.5 559.4 356.6 559.1 361.0C558.7 368.2 556.7 371.8 550.9 376.6C547.8 379.1 546.8 379.6 544.3 379.9C541.6 380.2 541.4 379.8 541.3 374.8L541.2 370.8L539.6 368.2C536.7 363.3 533.6 360.8 528.7 359.6C525.2 358.7 519.1 359.0 516.3 360.2C515.3 360.6 514.1 361.1 513.7 361.2C512.3 361.5 505.3 365.0 503.3 366.3C502.3 366.9 500.9 367.8 500.2 368.3C498.2 369.6 491.7 375.8 490.0 378.1C488.6 379.9 485.4 384.6 483.7 387.2C483.3 387.7 482.8 388.8 482.5 389.6C482.2 390.4 481.8 391.3 481.7 391.5C480.9 392.4 478.7 399.6 477.9 404.0C477.0 408.0 477.4 414.7 478.7 419.2C480.0 423.8 481.5 426.8 483.2 428.3C485.1 430.0 485.9 430.1 496.0 429.9C505.4 429.7 510.3 429.3 514.4 428.1C516.1 427.7 518.7 427.0 520.2 426.7C527.6 425.0 542.5 418.5 548.6 414.3C549.8 413.5 551.3 412.5 551.9 412.1C561.1 405.9 572.7 394.9 576.9 388.2C577.8 386.9 578.9 385.3 579.4 384.7C580.6 383.2 584.5 377.3 585.4 375.5C585.8 374.8 586.4 373.8 586.7 373.4C588.1 371.7 588.1 370.9 588.1 341.7C588.0 316.2 588.0 313.6 587.5 312.6C587.1 312.0 584.3 308.9 581.2 305.8C578.1 302.6 573.5 298.0 571.0 295.5C568.5 293.0 566.2 290.8 565.8 290.6C565.4 290.3 560.2 290.1 547.7 290.1L530.3 290.0L529.4 291.0C528.9 291.5 528.2 292.4 527.8 292.9C526.6 294.5 525.1 295.0 522.0 295.0C518.8 295.0 517.9 294.6 516.1 292.5C513.7 289.8 513.5 286.1 515.6 283.4C517.2 281.4 519.0 280.3 521.0 280.1C523.8 279.8 525.5 280.4 527.4 282.4C530.3 285.2 528.5 285.0 548.4 285.1L566.2 285.2L567.8 286.1C569.4 287.1 572.4 290.0 581.7 299.5C584.4 302.3 587.7 305.6 589.1 307.0C590.5 308.3 591.9 309.9 592.2 310.4C592.6 311.2 592.7 314.5 592.8 332.3C592.8 346.7 592.9 353.4 593.2 353.8C593.5 354.3 593.7 354.2 594.9 352.4C595.8 351.1 596.3 349.8 596.5 348.8C596.6 347.9 597.1 346.2 597.5 345.0C598.2 343.0 598.5 341.4 599.7 332.3C599.9 330.8 600.2 328.5 600.3 327.3C600.9 323.1 599.7 304.6 598.7 301.9C598.5 301.4 598.3 300.5 598.3 299.9C598.3 299.3 598.0 297.7 597.5 296.4C597.0 295.1 596.7 293.8 596.7 293.5C596.7 293.3 596.0 291.7 595.1 290.0C593.7 287.1 591.4 283.9 589.8 282.5C588.6 281.4 586.0 278.0 585.5 276.8C584.4 274.2 585.3 272.5 587.4 273.3C588.8 273.8 592.0 277.0 594.3 280.2C595.5 282.0 597.1 284.1 597.8 285.1C600.7 289.2 603.8 298.3 604.1 303.8C604.2 305.5 604.5 307.3 604.7 307.8C604.9 308.5 605.1 312.2 605.2 318.0C605.4 325.6 605.3 327.7 604.9 330.0C604.6 331.6 604.3 333.8 604.1 335.0C603.9 336.9 603.6 339.0 602.3 345.5C602.1 346.6 601.7 348.5 601.3 349.7C601.0 350.9 600.6 352.3 600.5 352.8C600.3 353.8 599.1 357.4 597.3 362.0C596.2 365.0 592.9 372.3 591.1 375.5C588.9 379.7 583.3 388.2 580.7 391.5C579.7 392.8 578.5 394.3 578.0 394.9C576.2 397.5 562.1 411.1 560.3 412.0C559.6 412.4 558.9 412.8 558.6 413.1C557.6 414.1 552.5 417.6 549.3 419.5C547.5 420.6 545.2 421.9 544.4 422.5C543.5 423.0 542.3 423.6 541.6 423.9C540.9 424.1 539.3 424.8 537.9 425.4C536.6 426.1 534.2 427.2 532.7 427.9C531.1 428.6 529.1 429.4 528.2 429.5C527.2 429.6 526.0 429.9 525.4 430.2C524.8 430.5 522.8 431.0 521.0 431.3C519.3 431.7 517.3 432.2 516.6 432.5C515.9 432.8 513.7 433.2 511.7 433.4C509.8 433.5 506.8 433.9 505.2 434.1C496.7 435.1 492.8 435.2 488.2 434.5ZM164.3 433.8C165.7 433.4 166.9 432.9 167.1 432.7C167.3 432.5 168.2 432.2 169.0 432.0C169.8 431.8 170.9 431.3 171.4 431.0C171.9 430.6 173.0 430.1 173.8 429.9C176.1 429.2 181.6 425.3 185.3 421.9C186.0 421.3 186.8 420.5 187.2 420.3C188.5 419.4 196.1 411.9 197.3 410.2C198.0 409.3 199.1 407.9 199.8 407.0C201.7 404.7 203.0 403.1 204.3 401.2C204.9 400.2 205.8 399.1 206.4 398.6C206.9 398.0 207.7 396.9 208.2 396.1C209.0 394.6 209.8 393.3 211.2 391.3C211.6 390.9 212.4 389.4 213.2 388.0C214.7 385.3 215.5 383.7 217.5 380.3C218.2 379.1 219.0 377.4 219.4 376.5C219.7 375.6 220.5 373.9 221.2 372.8C221.9 371.7 222.6 370.5 222.9 370.0C223.8 368.2 226.7 361.3 227.4 359.0C228.2 356.7 228.8 355.3 230.7 351.2C231.0 350.4 231.7 348.7 232.1 347.3C232.9 344.9 233.5 343.5 235.2 339.3C235.6 338.3 236.0 337.2 236.0 336.9C236.0 336.6 236.5 335.3 237.0 334.1C237.6 332.9 238.4 330.8 238.8 329.5C239.3 328.1 239.9 326.6 240.3 326.1C240.7 325.5 241.3 324.0 241.7 322.6C242.0 321.3 243.1 318.1 244.0 315.7C245.0 313.2 245.9 310.6 246.2 309.8C246.4 309.1 247.0 307.3 247.4 305.8C248.5 302.6 249.4 299.8 250.7 296.0C251.3 294.4 252.0 292.4 252.2 291.5C252.5 290.6 253.1 289.0 253.5 288.0C254.0 287.0 254.4 285.8 254.5 285.3C254.9 283.7 256.7 277.8 257.4 276.1C257.7 275.2 258.1 273.8 258.2 273.1C258.3 272.4 258.8 271.1 259.2 270.2C260.4 267.4 261.3 264.9 261.3 264.1C261.3 262.5 259.6 262.3 256.6 263.7C255.8 264.0 254.4 264.4 253.5 264.5C252.6 264.6 250.7 265.2 249.2 265.7C247.7 266.3 245.8 267.0 244.8 267.2C243.9 267.5 241.8 268.2 240.0 268.8L236.9 269.8L235.7 271.8C235.1 272.9 234.5 274.5 234.3 275.7C234.1 276.8 233.7 278.3 233.3 279.1C232.9 279.8 232.5 281.2 232.3 282.3C232.1 283.3 231.6 285.0 231.2 286.0C230.7 287.0 230.2 288.6 230.0 289.4C229.8 290.3 229.4 291.6 229.0 292.3C228.7 293.0 228.0 295.2 227.5 297.2C227.0 299.2 226.3 301.5 226.0 302.3C225.6 303.1 225.3 304.1 225.3 304.6C225.3 305.0 225.0 306.3 224.5 307.3C224.1 308.3 222.6 312.6 221.2 316.8C218.0 326.4 216.2 331.6 215.7 332.6C215.1 333.8 215.2 336.8 216.0 337.8C217.1 339.2 217.7 340.9 217.7 343.0C217.7 345.4 217.4 346.0 215.6 347.9C214.5 349.0 213.8 349.4 212.4 349.7C208.6 350.5 205.3 349.3 203.5 346.6C202.7 345.4 202.5 344.8 202.4 342.7C202.3 340.2 202.3 340.1 203.7 338.0C205.0 336.1 205.4 335.8 207.0 335.3C209.5 334.5 210.6 333.2 211.3 330.6C211.7 329.5 212.3 327.6 212.6 326.5C213.0 325.4 213.6 323.5 214.0 322.3C216.0 316.3 218.8 307.3 219.2 305.7C219.4 304.7 219.9 303.2 220.3 302.3C221.6 299.3 222.3 297.1 222.6 295.6C222.8 294.8 223.2 293.6 223.6 293.1C224.0 292.6 224.4 291.2 224.6 290.1C224.8 289.0 225.3 287.4 225.7 286.5C226.1 285.6 226.6 283.9 226.9 282.6C227.1 281.3 227.6 279.8 227.8 279.3C228.5 278.1 229.4 273.7 229.2 273.1C228.9 272.3 226.6 272.9 219.1 276.0C218.1 276.3 216.5 277.0 215.6 277.4C214.6 277.8 212.4 278.7 210.7 279.5C208.9 280.3 207.3 281.0 207.1 281.0C206.9 281.0 205.9 281.6 204.8 282.3C203.7 283.0 202.3 283.7 201.7 284.0C201.0 284.2 200.3 284.6 200.0 284.9C199.7 285.1 198.7 285.6 197.8 286.1C192.4 288.6 181.7 295.0 179.3 297.2C178.9 297.6 177.2 298.9 175.5 300.1C168.8 305.1 166.0 307.4 161.0 312.1C151.9 320.6 148.1 324.8 143.6 331.2C142.5 332.6 140.9 334.8 140.0 336.0C139.1 337.2 138.4 338.3 138.3 338.4C138.3 338.6 137.9 339.4 137.3 340.2C136.7 341.0 135.6 343.1 134.7 344.8C133.8 346.4 132.1 349.6 131.0 351.7C129.9 353.8 128.7 356.2 128.4 357.2C128.0 358.1 127.3 359.8 126.7 361.1C126.1 362.3 125.5 364.0 125.3 364.9C125.0 366.6 123.8 370.6 122.5 374.5C122.1 375.8 121.6 378.4 121.3 380.3C121.1 382.3 120.7 384.6 120.4 385.6C119.7 388.1 120.0 398.1 120.8 400.3C121.1 401.2 121.5 402.8 121.7 404.0C121.9 405.1 122.4 407.4 123.0 409.0C124.1 412.1 126.9 418.0 127.9 419.1C128.3 419.5 129.3 420.9 130.3 422.3C132.1 424.9 135.1 427.8 137.9 429.7C140.3 431.4 144.7 433.0 147.7 433.3C149.0 433.5 150.8 433.9 151.7 434.1C152.6 434.5 154.7 434.6 157.5 434.6C161.3 434.7 162.2 434.6 164.3 433.8ZM517.5 419.2C516.4 418.7 515.2 417.7 514.5 416.8C513.3 415.2 513.3 415.2 513.3 411.9L513.3 408.5L515.0 407.0C516.9 405.1 518.6 404.5 521.4 404.7C522.9 404.8 523.7 405.1 525.5 406.3C528.3 408.2 528.0 408.2 535.4 405.1C536.5 404.7 538.2 403.8 539.3 403.2C546.9 398.8 547.5 398.4 552.6 394.2C554.0 393.1 555.6 391.7 556.3 391.2C557.7 390.1 563.0 384.6 565.2 382.0C569.5 376.9 571.9 373.4 573.7 369.9L574.8 367.5L574.8 348.5L574.8 329.5L574.0 328.3C572.4 326.1 557.2 310.8 555.9 310.2C554.8 309.7 553.3 309.7 537.9 309.7L521.1 309.8L518.8 312.2C516.2 314.8 515.2 315.3 512.1 314.8C509.7 314.5 508.8 313.9 507.4 311.8C506.3 310.0 506.2 309.6 506.0 307.3C505.9 305.0 506.0 304.5 506.8 303.2C507.8 301.5 508.7 300.8 511.3 299.7C512.9 299.0 513.2 299.0 514.9 299.4C516.5 299.7 517.1 300.0 518.5 301.5C519.4 302.4 520.4 303.4 520.8 303.6C521.3 304.0 524.5 304.1 538.3 304.2C547.6 304.3 555.7 304.4 556.3 304.5C557.3 304.7 559.1 306.4 568.1 315.3C576.1 323.3 578.8 326.1 579.0 327.0C579.3 327.8 579.3 335.3 579.3 349.2L579.2 370.2L578.0 372.3C577.0 374.3 576.0 375.8 571.5 382.2C568.6 386.4 555.1 399.3 551.6 401.3C550.8 401.7 549.9 402.3 549.7 402.5C548.4 403.6 545.5 405.4 542.5 406.8C540.6 407.7 538.0 409.0 536.7 409.7C535.3 410.3 533.4 411.2 532.4 411.5C530.1 412.2 529.2 413.0 527.6 415.5C525.8 418.5 523.8 419.8 521.2 419.9C519.5 420.0 518.9 419.9 517.5 419.2ZM523.0 414.1C523.9 413.0 523.9 410.9 523.0 410.0C522.0 409.0 519.6 409.1 518.7 410.1C517.8 411.1 517.7 413.4 518.7 414.3C519.7 415.4 522.1 415.3 523.0 414.1ZM298.9 369.9C297.3 369.0 296.7 368.5 295.4 366.8C294.1 365.1 293.7 363.0 294.1 360.6C294.5 358.7 296.6 356.4 299.3 354.9C301.8 353.5 301.8 353.5 302.6 351.3C303.0 350.1 303.5 348.5 303.7 347.8C303.8 347.0 304.2 345.9 304.5 345.3C304.8 344.8 305.2 343.5 305.4 342.4C305.6 341.4 306.0 340.0 306.4 339.4C306.8 338.8 307.3 337.5 307.5 336.6C307.7 335.6 308.5 333.3 309.2 331.3C310.0 329.4 310.8 326.8 311.2 325.5C311.5 324.2 312.0 322.7 312.2 322.2C312.7 321.3 314.1 316.7 314.5 314.7C314.6 314.0 315.0 312.9 315.4 312.2C315.7 311.6 316.2 310.2 316.3 309.3C316.5 308.4 316.9 307.2 317.3 306.7C317.6 306.2 318.1 305.2 318.3 304.3C318.5 303.5 318.9 302.2 319.2 301.5C319.4 300.8 320.1 298.6 320.7 296.7C322.0 292.2 323.1 288.9 324.4 285.2C324.9 283.5 325.6 281.4 325.9 280.5C326.1 279.6 326.5 278.3 326.8 277.7C327.1 277.0 328.1 274.1 329.0 271.2C329.9 268.2 331.0 265.0 331.5 264.0C331.9 263.0 332.4 261.4 332.5 260.5C332.6 259.6 333.0 258.4 333.3 257.8C333.6 257.2 334.1 256.2 334.3 255.6C334.8 254.0 336.8 252.3 337.9 252.4C339.6 252.6 339.6 253.3 338.2 257.4C337.6 259.5 336.9 261.6 336.8 262.2C336.7 262.7 336.4 263.6 336.1 264.1C335.8 264.7 335.4 266.2 335.1 267.5C334.7 270.0 333.7 273.1 332.6 275.8C332.2 276.8 331.6 278.7 331.1 280.2C330.6 281.6 329.7 284.3 329.1 286.2C328.5 288.0 327.8 290.3 327.5 291.2C327.3 292.2 326.8 293.4 326.5 293.9C325.9 294.9 324.9 297.9 324.2 300.5C323.9 301.4 323.5 302.8 323.2 303.5C322.9 304.2 322.4 306.1 322.0 307.7C321.6 309.2 321.0 311.1 320.7 311.9C320.3 312.6 319.9 313.8 319.8 314.5C319.7 315.3 319.4 316.2 319.2 316.7C318.9 317.1 318.6 318.3 318.4 319.2C318.2 320.1 317.7 321.7 317.3 322.7C315.5 327.1 315.2 327.9 314.8 329.8C314.5 330.8 314.1 332.1 313.9 332.6C313.6 333.1 313.3 334.1 313.2 334.8C313.1 335.5 312.4 337.6 311.7 339.5C311.0 341.3 310.1 343.9 309.7 345.2C309.3 346.4 308.8 348.2 308.5 349.2C306.4 355.8 306.3 356.7 307.6 358.5C308.7 359.8 309.2 362.4 308.9 364.5C308.6 365.9 307.1 368.0 305.5 369.2C304.5 370.0 303.8 370.2 302.0 370.3C300.5 370.3 299.5 370.2 298.9 369.9ZM303.6 364.5C305.4 362.2 303.9 359.4 301.2 359.8C297.5 360.3 297.9 365.3 301.6 365.3C302.7 365.3 303.1 365.1 303.6 364.5ZM293.2 347.7C292.3 347.5 291.4 346.9 290.2 345.7L288.5 344.0L288.4 340.9C288.3 339.3 288.4 337.3 288.6 336.6C289.1 335.1 291.0 333.5 293.4 332.6C296.0 331.6 296.5 331.0 297.8 326.9C298.5 324.8 299.3 322.2 299.7 321.0C300.1 319.8 300.6 317.9 300.8 316.8C301.0 315.7 301.5 314.4 301.7 313.8C302.0 313.3 302.3 312.2 302.5 311.4C302.6 310.6 303.0 309.5 303.4 309.0C303.7 308.5 304.2 307.2 304.4 306.1C304.6 305.0 304.9 303.8 305.2 303.3C305.4 302.9 305.7 302.0 305.8 301.3C306.1 299.7 308.4 292.6 308.7 292.2C308.8 292.0 309.2 290.9 309.5 289.8C310.1 287.3 310.8 285.0 311.7 282.8C312.1 281.9 312.8 280.0 313.2 278.5C314.1 275.2 315.2 272.0 316.0 269.8C316.4 268.9 316.7 268.0 316.7 267.7C316.7 267.5 317.0 266.6 317.5 265.7C317.9 264.9 318.4 263.4 318.5 262.5C318.7 260.8 319.9 258.5 321.1 257.1C322.0 256.1 323.8 256.1 324.3 257.0C324.6 257.6 324.6 258.2 324.0 259.9C323.6 261.1 323.3 262.3 323.3 262.6C323.3 263.2 322.2 267.1 321.1 270.0C320.7 271.2 320.3 272.7 320.1 273.3C320.0 274.0 319.6 275.1 319.3 275.8C318.9 276.5 318.5 277.7 318.4 278.4C318.2 279.2 317.8 280.6 317.4 281.5C317.0 282.4 316.1 285.1 315.3 287.5C314.6 289.9 313.7 292.6 313.4 293.5C312.8 295.0 311.0 300.7 310.5 302.7C310.4 303.1 310.1 303.8 309.9 304.2C309.4 304.9 308.2 308.8 307.8 310.7C307.5 312.4 306.0 316.9 305.2 319.0C304.7 320.0 304.3 321.4 304.2 322.2C304.0 322.9 303.7 324.0 303.3 324.7C303.0 325.3 302.6 326.7 302.5 327.7C302.4 328.7 302.0 330.2 301.6 331.0C300.8 332.9 300.8 334.3 301.7 335.9C302.5 337.2 303.0 341.7 302.5 343.5C302.3 344.4 300.4 346.4 299.0 347.2C297.9 347.7 294.8 348.0 293.2 347.7ZM212.3 344.5C212.8 344.0 213.1 343.3 213.1 342.3C213.2 340.5 212.0 339.3 209.9 339.3C208.1 339.3 207.4 339.9 207.1 341.4C206.7 344.1 207.6 345.3 210.0 345.3C211.2 345.3 211.7 345.2 212.3 344.5ZM324.5 344.5C323.2 344.0 321.1 341.8 320.7 340.6C320.2 339.2 320.2 335.5 320.8 334.2C321.3 332.9 323.1 331.3 326.0 329.7C327.9 328.6 328.2 328.3 328.6 327.0C329.5 323.8 332.1 315.8 332.7 314.3C333.5 312.4 334.2 310.1 335.2 306.7C335.7 305.1 336.3 303.3 336.6 302.7C337.4 300.9 337.5 297.0 336.9 295.1C336.6 294.2 336.3 292.5 336.3 290.9C336.3 288.1 336.5 287.2 339.5 278.2C340.1 276.2 340.9 273.7 341.1 272.7C341.7 270.5 342.7 267.5 343.6 265.2C344.7 262.3 345.4 260.2 345.9 258.0C346.5 255.4 347.8 251.6 348.8 249.9C349.6 248.4 350.8 247.7 352.3 247.7C354.3 247.7 354.3 249.6 352.3 254.3C350.7 258.3 350.3 259.3 350.3 260.0C350.3 260.4 349.9 261.7 349.4 262.9C348.8 264.2 348.3 265.8 348.2 266.5C348.1 267.2 347.7 268.6 347.4 269.5C346.7 271.2 344.0 279.8 341.8 286.6C340.5 290.8 340.5 291.8 341.8 294.2C342.8 296.1 342.7 299.6 341.5 302.0C341.1 303.0 340.7 304.1 340.7 304.5C340.7 304.9 340.3 305.9 339.9 306.8C339.4 307.6 338.9 308.9 338.8 309.6C338.7 310.3 338.3 311.7 338.0 312.8C337.6 313.8 337.3 315.1 337.3 315.6C337.3 316.1 336.9 317.3 336.5 318.3C336.0 319.3 335.4 321.0 335.2 322.0C334.9 323.0 334.3 325.1 333.9 326.7C332.8 330.3 332.8 331.1 334.0 333.5C335.3 335.9 335.4 338.4 334.4 340.7C333.8 342.0 333.3 342.6 331.6 343.7C329.8 344.9 329.3 345.0 327.5 345.0C326.4 345.0 325.1 344.8 324.5 344.5ZM297.5 342.2C298.5 341.2 298.6 339.1 297.7 338.0C297.2 337.3 296.7 337.2 295.4 337.2C294.3 337.2 293.5 337.4 293.2 337.7C292.5 338.4 292.2 340.3 292.6 341.4C293.3 343.1 296.1 343.6 297.5 342.2ZM329.3 339.7C330.0 339.0 330.2 338.1 330.0 336.5C329.9 335.3 329.0 334.7 327.4 334.7C325.5 334.7 324.7 335.5 324.7 337.5C324.7 339.5 325.5 340.3 327.3 340.3C328.2 340.3 328.9 340.1 329.3 339.7ZM408.9 312.0C407.7 311.7 405.5 309.6 404.8 308.3C404.5 307.7 404.3 306.4 404.3 304.9C404.3 302.8 404.5 302.3 405.4 300.7C406.2 299.3 406.7 298.8 408.0 298.3C410.1 297.4 411.1 295.8 412.0 292.2C412.4 290.6 413.0 288.7 413.4 287.9C413.8 287.2 414.2 285.6 414.3 284.5C414.6 282.0 416.4 277.3 417.4 276.4C418.0 275.9 419.0 275.8 430.3 275.8C437.0 275.8 443.3 275.8 444.3 275.9C446.7 276.1 446.9 276.7 445.8 279.6C445.3 280.8 444.7 282.8 444.5 283.9C443.8 286.7 442.5 289.3 441.5 289.7C440.3 290.3 438.4 289.8 437.9 288.9C437.7 288.2 437.7 287.7 438.3 286.2C439.2 283.8 439.2 281.8 438.4 281.3C438.0 281.1 434.6 281.0 429.7 281.0C420.3 281.0 420.3 281.0 419.7 284.3C419.5 285.3 419.1 286.7 418.9 287.3C418.6 288.0 418.3 289.2 418.2 290.2C418.0 291.1 417.6 292.7 417.1 293.7C416.0 296.5 416.1 297.9 417.6 300.0C419.0 302.1 419.6 305.2 419.0 307.3C418.5 309.1 416.2 311.6 414.7 312.0C413.3 312.4 410.2 312.4 408.9 312.0ZM515.6 309.1C515.8 308.8 516.0 307.9 516.0 307.1C516.0 305.1 514.9 304.0 513.0 304.0C511.2 304.0 510.3 304.9 510.3 306.7C510.3 308.3 510.8 309.3 511.8 309.7C512.8 310.1 515.1 309.8 515.6 309.1ZM414.0 307.0C414.7 306.3 414.9 303.9 414.4 303.1C414.0 302.4 412.3 302.0 411.1 302.2C409.7 302.5 409.0 303.4 409.0 305.1C409.0 306.8 409.9 307.7 411.8 307.7C412.9 307.7 413.5 307.5 414.0 307.0ZM524.1 289.6C524.9 288.5 524.8 286.5 524.0 285.7C523.2 284.8 520.6 284.7 519.9 285.5C519.2 286.2 518.9 287.5 519.1 288.5C519.5 289.8 520.2 290.3 522.0 290.3C523.3 290.3 523.7 290.2 524.1 289.6ZM420.0 269.4C419.4 268.9 419.3 268.6 419.5 267.6C419.6 267.0 420.0 266.1 420.4 265.8C421.0 265.2 421.9 265.2 435.0 265.1C448.7 265.0 449.0 265.0 449.7 265.7C450.0 266.0 450.3 266.6 450.3 267.0C450.3 267.9 449.5 269.5 448.9 269.8C448.6 269.9 442.1 270.0 434.5 270.0C421.9 269.9 420.6 269.9 420.0 269.4ZM423.7 259.6C423.2 259.3 422.8 258.9 422.7 258.5C422.6 257.5 424.0 254.9 425.0 254.4C425.6 254.1 429.1 254.0 439.6 254.1C453.0 254.2 453.4 254.2 453.9 254.8C454.2 255.2 454.3 255.8 454.2 256.3C453.9 257.6 452.6 259.2 451.7 259.6C450.6 260.2 424.8 260.1 423.7 259.6ZM549.2 256.1C550.8 255.9 552.9 255.3 553.9 254.8C554.8 254.4 556.4 254.0 557.4 253.8C559.1 253.6 561.6 252.6 563.3 251.3C563.8 251.0 565.1 250.4 566.2 250.0C568.6 249.1 570.3 247.9 570.3 247.0C570.3 246.2 569.0 245.5 566.1 245.0C565.0 244.8 563.3 244.4 562.2 244.0C560.6 243.4 559.5 243.3 553.6 243.3C548.6 243.3 546.3 243.5 545.0 243.8C544.0 244.1 542.3 244.6 541.2 244.9C537.0 246.0 534.4 247.8 533.1 250.6C532.6 251.6 532.6 251.8 533.2 252.9C533.8 254.2 536.0 255.5 538.5 256.3C540.1 256.8 545.9 256.7 549.2 256.1ZM427.2 248.7C426.5 248.0 426.5 247.0 427.1 245.5C427.4 244.8 427.9 244.3 428.4 244.2C429.9 243.9 455.8 243.8 456.8 244.1C457.5 244.3 457.7 244.6 457.7 245.4C457.7 246.6 456.9 248.5 456.3 248.9C456.0 249.0 449.5 249.2 441.8 249.2C428.7 249.3 427.7 249.3 427.2 248.7ZM240.2 240.8C240.1 240.7 240.0 240.2 240.0 239.7C240.0 238.8 241.1 233.6 241.7 231.8C241.9 231.3 242.3 230.2 242.5 229.5C242.8 228.8 244.0 224.8 245.3 220.7C249.8 206.6 256.7 185.5 257.5 183.8C258.0 182.9 258.3 181.9 258.3 181.6C258.3 179.3 261.7 173.0 262.4 174.1C263.2 175.3 262.4 183.3 261.2 186.1C261.0 186.7 260.7 187.8 260.5 188.5C260.4 189.2 259.9 191.0 259.5 192.3C259.0 193.7 258.4 195.7 258.2 196.8C257.1 201.6 253.7 212.4 253.0 213.2C252.6 213.6 252.3 214.5 250.7 220.5C250.2 222.3 249.4 224.5 249.0 225.3C248.7 226.2 248.3 227.2 248.3 227.7C248.3 228.1 248.0 229.3 247.5 230.2C247.1 231.1 246.6 232.9 246.4 234.1C245.8 237.5 244.7 239.8 243.2 240.4C242.0 241.0 240.6 241.2 240.2 240.8ZM430.8 238.7C429.8 238.3 429.8 237.6 430.6 234.3C431.9 229.4 434.2 223.4 435.2 222.3C436.3 221.2 437.4 221.1 438.3 222.0C439.2 222.9 439.2 223.1 438.1 226.6C436.3 232.5 436.4 232.0 437.3 232.7C438.0 233.3 438.7 233.3 447.0 233.3C453.0 233.3 456.2 233.2 456.8 233.0C457.7 232.5 457.7 232.6 459.8 226.0C460.7 223.4 461.7 220.6 462.1 219.7C462.6 218.9 463.0 217.5 463.2 216.7C463.3 215.8 463.7 214.4 464.0 213.4C465.0 210.7 464.9 208.9 463.6 207.1C462.4 205.5 462.1 203.3 462.5 200.5C462.7 199.3 463.1 198.6 464.2 197.3C466.0 195.5 467.1 195.0 470.3 195.0C472.8 195.0 473.7 195.4 475.6 197.7C477.0 199.3 477.1 199.6 477.3 201.7C477.5 205.4 476.0 207.7 471.7 210.0C469.6 211.1 469.2 211.7 468.8 214.2C468.7 214.9 468.4 215.9 468.1 216.4C467.9 216.9 467.5 218.1 467.3 219.1C467.1 220.0 466.7 221.6 466.4 222.5C465.2 225.6 464.6 227.5 464.0 229.7C463.2 232.8 461.4 236.9 460.5 238.0L459.7 238.8L445.6 238.9C437.6 238.9 431.2 238.8 430.8 238.7ZM272.3 232.5C271.8 231.8 272.5 227.8 274.0 223.8C274.4 222.9 274.7 221.6 274.9 221.0C275.1 219.6 276.5 214.9 278.5 208.8C278.8 207.9 279.4 206.1 279.7 204.8C280.1 203.5 280.7 201.8 281.0 200.8C282.4 196.9 283.1 194.7 283.5 193.0C283.7 192.0 284.1 190.8 284.3 190.4C284.5 190.0 284.9 189.0 285.2 188.2C285.4 187.5 286.2 185.3 287.0 183.5C287.8 181.7 288.7 179.1 289.0 177.8C289.3 176.6 290.4 173.4 291.3 170.8C292.3 168.3 293.3 165.3 293.6 164.3C293.8 163.3 294.6 161.3 295.3 159.8C296.0 158.3 296.7 156.6 296.8 156.0C296.9 155.5 297.6 153.8 298.2 152.3C298.9 150.7 299.5 149.3 299.6 149.0C299.8 148.5 303.0 141.0 304.7 137.3C305.2 136.1 306.3 134.0 307.0 132.5C307.8 131.0 309.5 127.7 310.8 125.2C312.1 122.6 313.9 119.4 314.6 118.0C315.4 116.6 316.6 114.5 317.3 113.3C317.9 112.1 318.9 110.6 319.4 110.0C319.9 109.4 320.3 108.7 320.3 108.5C320.3 108.3 320.8 107.5 321.3 106.8C321.9 106.1 322.3 105.4 322.3 105.2C322.3 105.0 323.1 103.8 324.0 102.5C324.9 101.2 326.4 99.0 327.3 97.7C329.4 94.5 331.2 92.2 332.7 90.7C334.2 89.1 336.8 85.8 337.5 84.4C338.5 82.5 337.3 82.1 335.1 83.6C334.4 84.1 332.6 85.0 331.2 85.5C329.7 86.0 327.4 87.0 326.1 87.7C324.7 88.4 323.4 89.0 323.1 89.0C322.8 89.0 322.0 89.3 321.3 89.7C318.5 91.5 310.3 94.2 304.2 95.4C303.2 95.6 301.5 96.0 300.3 96.4C299.1 96.7 297.2 97.1 296.0 97.2C294.8 97.3 293.0 97.7 292.0 98.1C291.0 98.4 288.3 98.9 285.9 99.2C283.5 99.5 280.4 99.9 279.1 100.2C275.0 101.1 267.1 101.8 254.6 102.3C250.5 102.5 246.5 102.9 245.2 103.2C244.0 103.4 242.0 103.7 240.9 103.7C239.8 103.7 237.9 103.9 236.7 104.2C235.5 104.4 234.0 104.6 233.3 104.7C232.7 104.7 231.3 104.9 230.3 105.2C229.3 105.4 227.4 105.9 226.1 106.2C223.0 106.8 217.7 108.4 215.5 109.4C212.5 110.6 208.9 112.3 206.0 113.6C202.8 115.1 196.3 118.9 196.0 119.4C195.8 119.6 195.1 120.1 194.4 120.6C190.5 123.2 185.4 127.8 183.2 130.6C180.4 134.4 179.0 136.5 178.3 138.3C177.9 139.3 177.4 140.5 177.0 141.0C176.1 142.4 172.7 149.9 172.2 151.9C171.4 154.6 171.1 166.4 171.7 170.3C172.4 175.1 175.3 182.2 178.7 187.1C181.0 190.6 186.5 195.6 189.7 197.3C190.7 197.9 197.3 200.2 199.2 200.7C201.0 201.2 211.5 200.8 212.7 200.2C213.1 199.9 214.1 199.6 214.8 199.5C215.6 199.4 217.0 198.8 218.0 198.3C219.0 197.8 220.3 197.3 220.8 197.1C221.4 197.0 222.4 196.6 223.0 196.2C229.1 192.7 233.2 188.9 236.6 183.7C241.0 177.1 241.7 175.0 241.7 167.6L241.7 162.3L240.5 159.9C239.9 158.6 239.3 157.4 239.3 157.2C239.3 156.4 234.8 152.1 233.2 151.3C231.8 150.7 231.0 150.5 228.0 150.5C224.6 150.4 224.5 150.4 224.4 149.6C224.2 148.0 225.9 145.2 228.5 142.6C231.4 139.8 232.3 139.3 235.5 138.1C237.6 137.3 238.3 137.2 242.0 137.2C246.4 137.2 247.0 137.3 249.5 139.2C250.0 139.6 250.9 140.0 251.3 140.2C251.7 140.3 253.1 141.4 254.4 142.7C256.1 144.4 257.0 145.6 257.8 147.6C258.5 149.0 259.1 150.5 259.2 151.0C259.3 151.4 259.6 152.5 259.9 153.3C260.9 156.3 260.1 168.0 258.7 170.5C258.5 170.9 258.1 172.3 257.9 173.5C257.3 176.2 254.2 182.5 252.7 184.0C252.1 184.6 251.7 185.2 251.7 185.5C251.7 185.7 250.9 187.1 250.0 188.5C248.0 191.5 240.3 199.3 238.3 200.4C237.6 200.7 236.5 201.5 235.8 202.0C233.7 203.9 228.6 206.6 225.7 207.5C225.2 207.6 224.4 208.0 223.8 208.3C223.3 208.7 221.6 209.2 220.0 209.5C218.4 209.8 216.3 210.4 215.3 210.7C213.7 211.3 212.7 211.4 206.2 211.4C200.2 211.4 198.6 211.3 197.6 210.9C196.9 210.6 195.2 210.2 193.8 210.0C190.6 209.5 186.4 208.1 183.6 206.5C182.5 205.8 181.0 205.1 180.4 204.8C179.8 204.6 178.6 203.7 177.8 202.9C176.9 202.1 175.5 200.9 174.7 200.2C172.3 198.2 168.5 193.8 167.7 192.1C167.3 191.2 166.5 189.8 166.0 189.0C165.5 188.2 164.8 186.8 164.5 186.0C164.2 185.2 163.6 183.8 163.2 182.8C162.7 181.9 162.1 180.2 161.9 179.0C161.6 177.8 161.1 176.0 160.8 175.0C159.5 170.6 159.5 153.4 160.7 150.3C161.0 149.5 161.5 147.6 161.8 146.1C162.1 144.6 162.6 142.8 162.8 142.1C163.1 141.4 163.8 139.7 164.2 138.3C164.7 137.0 165.4 135.2 165.9 134.5C166.3 133.7 166.7 132.9 166.7 132.6C166.7 131.3 171.1 124.0 174.2 120.0C174.7 119.3 175.8 118.0 176.5 117.0C179.6 112.9 187.5 105.0 191.7 101.6C193.9 100.0 202.0 94.7 202.5 94.7C202.6 94.7 203.2 94.4 203.7 94.0C204.2 93.6 205.3 93.1 206.1 92.8C206.8 92.5 208.4 91.7 209.5 91.0C210.6 90.3 211.7 89.7 211.8 89.7C212.0 89.7 213.6 89.0 215.3 88.1C218.6 86.5 225.2 84.1 230.0 82.8C231.6 82.4 233.4 81.8 234.2 81.5C234.9 81.3 236.0 81.0 236.6 81.0C237.2 81.0 238.4 80.7 239.3 80.3C240.1 80.0 242.0 79.5 243.5 79.3C245.0 79.1 247.0 78.7 248.0 78.4C249.0 78.2 251.4 77.8 253.5 77.7C261.0 77.1 266.3 76.6 269.7 76.1C271.6 75.9 278.9 75.4 285.9 75.2C294.2 74.8 299.5 74.5 301.1 74.2C302.4 73.9 304.3 73.7 305.3 73.7C306.3 73.7 307.8 73.5 308.6 73.3C309.3 73.2 312.1 72.7 314.8 72.3C317.5 72.0 320.1 71.4 320.8 71.2C321.4 70.9 322.7 70.6 323.7 70.5C324.7 70.3 326.0 70.0 326.6 69.8C327.2 69.5 328.3 69.2 329.1 69.0C332.3 68.4 335.6 67.4 337.3 66.6C338.3 66.1 340.6 65.2 342.3 64.5C344.1 63.8 346.0 62.9 346.7 62.5C347.3 62.1 348.7 61.5 349.7 61.2C350.7 60.9 352.1 60.3 352.9 59.7C353.6 59.2 355.5 58.1 357.2 57.2C358.8 56.3 360.5 55.2 361.0 54.8C361.5 54.4 363.6 52.9 365.7 51.5C367.8 50.1 370.8 48.0 372.5 46.8C376.6 43.8 377.6 43.3 379.7 43.3C382.5 43.3 385.2 45.2 386.4 47.9C387.6 50.7 387.2 51.4 382.0 57.0C380.2 58.9 378.3 61.0 377.9 61.6C377.5 62.1 376.0 64.1 374.7 65.9C371.6 70.0 369.9 72.8 369.4 74.4C369.1 75.1 368.8 75.7 368.6 75.9C368.5 76.0 367.9 76.9 367.3 77.9C366.7 79.0 365.7 80.8 365.0 82.0C363.5 84.6 358.1 95.3 357.5 97.1C357.2 97.9 356.8 98.6 356.7 98.8C356.2 99.4 354.0 104.9 353.7 106.6C353.5 107.4 353.0 108.6 352.5 109.3C352.1 109.9 351.6 111.0 351.5 111.5C351.3 112.0 350.5 113.9 349.7 115.5C348.8 117.1 347.7 119.9 347.2 121.7C346.7 123.4 346.0 125.6 345.6 126.5C344.0 130.4 342.4 135.1 340.6 140.3C340.3 141.5 339.6 143.5 339.1 144.8C338.7 146.1 337.9 148.6 337.5 150.5C336.5 154.1 335.5 157.4 334.2 160.7C333.0 163.6 330.0 172.6 330.0 173.3C330.0 173.6 329.6 174.6 329.2 175.5C328.8 176.4 328.3 177.8 328.2 178.5C328.1 179.2 327.6 180.5 327.2 181.3C326.8 182.2 326.3 183.4 326.2 184.2C326.1 185.0 325.5 187.1 324.9 189.1C324.3 191.0 323.6 193.1 323.5 193.7C323.4 194.3 322.8 196.5 322.2 198.5C321.6 200.5 320.9 202.8 320.7 203.5C320.4 204.9 318.9 208.9 317.7 211.8C317.3 212.8 316.6 215.2 316.2 217.4C315.5 220.2 315.1 221.4 314.6 221.9C313.8 222.6 311.4 223.5 307.2 224.6C300.9 226.2 295.9 227.6 291.7 228.8C290.7 229.1 289.5 229.3 289.1 229.3C288.6 229.3 287.3 229.6 286.1 230.0C284.8 230.3 282.1 231.0 280.0 231.5C277.9 232.0 275.6 232.5 275.0 232.7C273.3 233.1 272.8 233.1 272.3 232.5ZM333.7 216.2C333.2 215.6 333.6 213.4 334.5 211.7C334.7 211.2 335.3 209.5 335.7 208.0C336.0 206.4 336.6 204.5 337.0 203.7C337.3 202.8 338.1 200.4 338.7 198.2C339.2 196.0 340.1 193.2 340.5 192.1C341.0 191.0 341.3 189.9 341.3 189.7C341.3 189.5 341.9 187.8 342.6 185.9C343.3 184.0 344.4 180.9 345.0 179.0C347.5 170.7 348.5 167.8 351.2 160.0C352.2 157.0 352.8 154.5 352.8 152.3C352.8 150.7 352.7 150.3 351.7 148.9C350.4 147.2 350.1 145.2 350.5 142.4C350.7 141.1 351.0 140.6 352.4 139.3C354.4 137.3 355.7 136.9 358.8 137.1C361.1 137.2 361.4 137.3 362.5 138.3C365.1 140.7 365.7 141.9 365.7 144.2C365.7 145.5 365.5 146.9 365.1 147.5C364.3 149.2 361.9 151.5 360.4 152.0C358.6 152.6 358.0 153.3 357.5 155.6C357.0 157.5 355.7 161.3 354.9 162.9C354.6 163.4 354.2 164.7 354.0 165.8C353.8 166.9 353.2 168.7 352.8 169.7C352.4 170.8 352.0 172.0 352.0 172.4C352.0 172.9 351.5 174.7 350.8 176.5C349.2 180.9 349.2 180.9 348.0 185.0C345.5 193.3 344.9 195.3 344.0 197.3C343.5 198.5 343.0 200.0 342.8 200.7C342.5 202.2 340.1 209.5 339.4 211.2C339.0 211.9 338.5 213.2 338.2 214.1C337.8 215.2 337.3 215.8 336.7 216.2C335.4 216.8 334.2 216.8 333.7 216.2ZM348.2 212.1C347.9 211.9 347.7 211.4 347.7 211.1C347.7 210.2 348.9 206.1 350.1 202.5C350.8 200.7 351.3 199.0 351.3 198.7C351.3 198.4 351.6 197.6 352.0 196.9C352.3 196.3 352.9 194.8 353.2 193.6C353.9 190.7 355.3 186.5 356.2 184.3C356.6 183.3 357.0 181.9 357.2 181.2C357.3 180.4 357.7 179.2 358.0 178.3C358.3 177.5 358.9 175.8 359.3 174.5C360.5 171.0 361.6 169.1 363.9 167.0C366.2 165.0 368.0 161.8 368.5 159.0C368.6 158.3 369.0 157.1 369.3 156.4C369.6 155.7 370.4 153.6 371.0 151.7C371.6 149.7 372.4 147.2 372.9 146.0C373.3 144.8 373.8 142.9 374.0 141.8C374.5 139.5 374.2 135.0 373.5 133.0C373.2 132.3 372.9 129.7 372.7 127.4C372.5 125.1 372.2 122.6 372.0 122.0C371.3 119.7 371.7 117.0 372.8 116.3C373.4 115.8 375.3 116.0 375.8 116.5C376.1 116.8 376.4 118.4 376.7 120.7C376.9 122.8 377.2 124.9 377.4 125.3C377.6 125.8 377.9 128.0 378.0 130.4C378.2 132.7 378.5 135.3 378.7 136.1C379.3 138.4 378.9 143.9 378.1 145.5C377.7 146.2 377.2 147.6 377.0 148.5C376.8 149.4 376.4 150.5 376.1 151.0C375.6 151.7 375.2 153.3 373.8 158.5C373.6 159.6 373.0 161.2 372.5 162.1C372.0 163.0 371.7 164.0 371.7 164.3C371.7 165.2 369.6 168.5 367.9 170.1C365.4 172.7 364.8 173.6 363.5 177.7C362.8 179.8 362.0 182.0 361.7 182.5C361.5 183.0 361.0 184.5 360.7 185.7C360.3 186.9 359.9 188.5 359.6 189.3C358.7 192.0 358.0 194.1 357.4 196.2C357.0 197.3 356.2 199.9 355.6 202.0C354.9 204.1 354.1 206.6 353.7 207.5C353.3 208.4 352.9 209.7 352.6 210.3C351.9 212.2 349.3 213.3 348.2 212.1ZM363.7 207.6C363.0 206.9 363.3 204.6 364.5 201.2C365.2 199.3 366.0 197.2 366.2 196.3C366.5 195.5 367.0 194.2 367.4 193.5C367.7 192.8 368.1 191.3 368.3 190.3C368.5 189.2 369.0 187.3 369.5 185.9C370.0 184.6 370.6 182.7 370.9 181.7C371.8 178.0 372.8 175.1 373.7 172.7C374.3 171.3 375.0 169.2 375.3 168.0C375.7 166.8 376.3 165.2 376.6 164.3C377.0 163.5 377.3 162.6 377.3 162.3C377.3 162.0 378.3 159.4 379.4 156.5C381.5 151.0 382.3 148.5 384.9 140.3C385.7 137.7 386.8 134.5 387.2 133.2C388.4 130.0 388.6 127.4 387.8 124.7C387.5 123.5 387.2 120.5 387.0 118.0C386.8 115.4 386.5 112.9 386.2 112.0C385.9 111.2 385.7 110.0 385.7 109.4C385.6 107.1 385.1 105.6 383.9 104.5C383.2 104.0 382.2 102.7 381.5 101.7C380.5 100.1 380.3 99.7 380.3 97.8C380.3 95.3 380.6 94.7 382.3 92.9C384.1 91.0 385.2 90.5 387.8 90.5C390.8 90.5 392.7 91.5 394.3 93.9C395.2 95.3 395.3 95.7 395.3 97.8C395.3 100.6 394.7 101.8 392.1 104.2C390.7 105.6 390.7 105.6 390.7 107.8C390.7 109.0 390.9 111.0 391.2 112.1C391.4 113.2 391.8 115.8 392.0 117.8C392.2 119.9 392.5 123.1 392.8 125.0C393.5 129.0 393.3 130.7 392.2 133.3C391.7 134.3 390.9 136.6 390.5 138.4C390.0 140.2 389.1 143.3 388.3 145.1C387.6 147.0 386.7 149.8 386.2 151.5C385.7 153.2 385.1 155.2 384.8 156.0C384.5 156.8 383.7 159.1 383.1 161.0C382.5 162.9 381.7 165.1 381.3 165.8C381.0 166.6 380.5 168.2 380.2 169.5C379.9 170.8 379.3 172.7 378.8 173.7C378.4 174.7 378.0 175.8 378.0 176.2C378.0 176.5 377.6 177.6 377.2 178.6C376.8 179.7 376.0 181.8 375.5 183.5C375.0 185.2 374.3 187.2 374.0 188.2C373.6 189.1 373.2 190.4 373.1 191.0C373.0 191.6 372.7 192.6 372.3 193.2C371.7 194.3 370.0 199.4 368.7 204.2C368.5 205.1 367.9 205.9 366.9 206.8C365.3 208.0 364.4 208.3 363.7 207.6ZM471.2 205.1C472.0 204.8 472.8 203.1 472.5 201.8C472.2 200.3 471.3 199.6 469.5 199.5C467.6 199.5 467.0 200.1 466.7 202.3C466.6 203.7 466.7 204.0 467.5 204.6C468.4 205.3 470.1 205.5 471.2 205.1ZM359.7 147.0C360.4 146.6 361.1 144.6 360.9 143.5C360.5 142.2 359.7 141.7 358.0 141.7C356.0 141.7 355.2 142.5 355.2 144.6C355.2 145.7 355.3 146.2 356.0 146.7C356.8 147.4 358.7 147.5 359.7 147.0ZM389.8 100.3C390.1 100.0 390.5 99.0 390.6 98.2C390.7 96.9 390.6 96.6 389.9 95.9C389.2 95.2 388.7 95.0 387.5 95.0C385.5 95.0 384.5 96.2 384.8 98.3C385.0 100.3 385.7 101.0 387.7 101.0C388.8 101.0 389.4 100.8 389.8 100.3Z"/></svg>
